M48
; DRILL file {KiCad (5.1.5)-3} date 11/4/2020 1:08:42 PM
; FORMAT={-:-/ absolute / inch / decimal}
; #@! TF.CreationDate,2020-11-04T13:08:42-03:00
; #@! TF.GenerationSoftware,Kicad,Pcbnew,(5.1.5)-3
; #@! TF.FileFunction,Plated,1,2,PTH
FMAT,2
INCH
T1C0.0079
T2C0.0157
T3C0.0197
T4C0.0512
T5C0.0709
T6C0.0787
T7C0.1260
%
G90
G05
T1
X7.6124Y-3.9449
X7.6124Y-4.0
X7.6124Y-4.0551
X7.6676Y-3.9449
X7.6676Y-4.0
X7.6676Y-4.0551
T2
X6.33Y-4.82
X6.34Y-4.19
X7.56Y-4.77
X7.59Y-5.2
X7.64Y-3.69
X7.74Y-5.0205
X7.79Y-3.53
X7.86Y-3.39
X7.93Y-3.6
X8.01Y-3.28
X8.0294Y-4.9
X8.095Y-5.115
X8.17Y-5.32
X8.38Y-5.215
X8.435Y-4.18
X8.62Y-5.215
X8.68Y-2.81
X8.68Y-2.86
X8.74Y-3.27
X8.76Y-2.67
X8.7891Y-3.27
X9.18Y-2.69
X9.18Y-2.74
X9.18Y-3.21
X9.18Y-3.26
X9.18Y-3.31
X9.18Y-3.36
X9.18Y-3.41
X9.18Y-3.81
X9.18Y-3.86
X9.18Y-3.91
X9.18Y-3.96
X9.18Y-4.01
X9.18Y-4.06
X9.18Y-4.11
X9.18Y-4.16
X9.18Y-4.21
X9.18Y-4.26
X9.18Y-4.31
X9.18Y-4.36
X9.18Y-4.77
X9.18Y-4.82
X9.18Y-4.87
X9.18Y-4.92
X9.18Y-4.97
X9.18Y-5.02
X9.18Y-5.07
X9.18Y-5.12
X9.23Y-2.69
X9.23Y-2.74
X9.23Y-3.21
X9.23Y-3.26
X9.23Y-3.31
X9.23Y-3.36
X9.23Y-3.41
X9.23Y-3.81
X9.23Y-3.86
X9.23Y-3.91
X9.23Y-3.96
X9.23Y-4.01
X9.23Y-4.06
X9.23Y-4.11
X9.23Y-4.16
X9.23Y-4.21
X9.23Y-4.26
X9.23Y-4.31
X9.23Y-4.36
X9.23Y-4.77
X9.23Y-4.82
X9.23Y-4.87
X9.23Y-4.92
X9.23Y-4.97
X9.23Y-5.02
X9.23Y-5.07
X9.23Y-5.12
X9.28Y-2.69
X9.28Y-2.74
X9.28Y-3.21
X9.28Y-3.26
X9.28Y-3.31
X9.28Y-3.36
X9.28Y-3.41
X9.28Y-3.81
X9.28Y-3.86
X9.28Y-3.91
X9.28Y-3.96
X9.28Y-4.01
X9.28Y-4.06
X9.28Y-4.11
X9.28Y-4.16
X9.28Y-4.21
X9.28Y-4.26
X9.28Y-4.31
X9.28Y-4.36
X9.28Y-4.77
X9.28Y-4.82
X9.28Y-4.87
X9.28Y-4.92
X9.28Y-4.97
X9.28Y-5.02
X9.28Y-5.07
X9.28Y-5.12
X9.33Y-2.69
X9.33Y-2.74
X9.33Y-3.21
X9.33Y-3.26
X9.33Y-3.31
X9.33Y-3.36
X9.33Y-3.41
X9.33Y-3.81
X9.33Y-3.86
X9.33Y-3.91
X9.33Y-3.96
X9.33Y-4.01
X9.33Y-4.06
X9.33Y-4.11
X9.33Y-4.16
X9.33Y-4.21
X9.33Y-4.26
X9.33Y-4.31
X9.33Y-4.36
X9.33Y-4.77
X9.33Y-4.82
X9.33Y-4.87
X9.33Y-4.92
X9.33Y-4.97
X9.33Y-5.02
X9.33Y-5.07
X9.33Y-5.12
X9.38Y-2.69
X9.38Y-2.74
X9.38Y-2.8
X9.38Y-2.85
X9.38Y-2.9
X9.38Y-2.95
X9.38Y-3.0
X9.38Y-3.05
X9.38Y-3.1
X9.38Y-3.15
X9.38Y-3.21
X9.38Y-3.26
X9.38Y-3.31
X9.38Y-3.36
X9.38Y-3.41
X9.38Y-3.81
X9.38Y-3.86
X9.38Y-3.91
X9.38Y-3.96
X9.38Y-4.01
X9.38Y-4.06
X9.38Y-4.11
X9.38Y-4.16
X9.38Y-4.21
X9.38Y-4.26
X9.38Y-4.31
X9.38Y-4.36
X9.38Y-4.77
X9.38Y-4.82
X9.38Y-4.87
X9.38Y-4.92
X9.38Y-4.97
X9.38Y-5.02
X9.38Y-5.07
X9.38Y-5.12
X9.43Y-2.69
X9.43Y-2.74
X9.43Y-2.8
X9.43Y-2.85
X9.43Y-2.9
X9.43Y-2.95
X9.43Y-3.0
X9.43Y-3.05
X9.43Y-3.1
X9.43Y-3.15
X9.43Y-3.21
X9.43Y-3.26
X9.43Y-3.31
X9.43Y-3.36
X9.43Y-3.41
X9.43Y-3.81
X9.43Y-3.86
X9.43Y-3.91
X9.43Y-3.96
X9.43Y-4.01
X9.43Y-4.06
X9.43Y-4.11
X9.43Y-4.16
X9.43Y-4.21
X9.43Y-4.26
X9.43Y-4.31
X9.43Y-4.36
X9.43Y-4.77
X9.43Y-4.82
X9.43Y-4.87
X9.43Y-4.92
X9.43Y-4.97
X9.43Y-5.02
X9.43Y-5.07
X9.43Y-5.12
T3
X6.1055Y-3.6
X6.1332Y-3.5332
X6.1332Y-3.6668
X6.2Y-3.5055
X6.2Y-3.6945
X6.2668Y-3.5332
X6.2668Y-3.6668
X6.2945Y-3.6
X9.2055Y-2.52
X9.2332Y-2.4532
X9.2332Y-2.5868
X9.3Y-2.4255
X9.3Y-2.6145
X9.3668Y-2.4532
X9.3668Y-2.5868
X9.3945Y-2.52
X9.2055Y-4.585
X9.2332Y-4.5182
X9.2332Y-4.6518
X9.3Y-4.4905
X9.3Y-4.6795
X9.3668Y-4.5182
X9.3668Y-4.6518
X9.3945Y-4.585
X6.1055Y-2.52
X6.1332Y-2.4532
X6.1332Y-2.5868
X6.2Y-2.4255
X6.2Y-2.6145
X6.2668Y-2.4532
X6.2668Y-2.5868
X6.2945Y-2.52
X9.2055Y-3.6
X9.2332Y-3.5332
X9.2332Y-3.6668
X9.3Y-3.5055
X9.3Y-3.6945
X9.3668Y-3.5332
X9.3668Y-3.6668
X9.3945Y-3.6
X6.1055Y-5.66
X6.1332Y-5.5932
X6.1332Y-5.7268
X6.2Y-5.5655
X6.2Y-5.7545
X6.2668Y-5.5932
X6.2668Y-5.7268
X6.2945Y-5.66
X6.1055Y-4.585
X6.1332Y-4.5182
X6.1332Y-4.6518
X6.2Y-4.4905
X6.2Y-4.6795
X6.2668Y-4.5182
X6.2668Y-4.6518
X6.2945Y-4.585
X9.2055Y-5.66
X9.2332Y-5.5932
X9.2332Y-5.7268
X9.3Y-5.5655
X9.3Y-5.7545
X9.3668Y-5.5932
X9.3668Y-5.7268
X9.3945Y-5.66
T4
X7.5581Y-2.52
X7.76Y-2.52
X7.42Y-5.65
X7.6219Y-5.65
X7.82Y-5.65
X8.0219Y-5.65
T5
X7.56Y-2.39
X7.76Y-2.39
X7.42Y-5.78
X7.62Y-5.78
X7.82Y-5.78
X8.02Y-5.78
T6
X7.145Y-2.68
T7
X6.2Y-3.6
X9.3Y-4.585
X9.3Y-3.6
X6.2Y-5.66
X6.2Y-4.585
X9.3Y-5.66
X9.3Y-2.52
X6.2Y-2.52
T0
M30
