G04 #@! TF.GenerationSoftware,KiCad,Pcbnew,(5.1.5)-3*
G04 #@! TF.CreationDate,2020-11-04T13:08:40-03:00*
G04 #@! TF.ProjectId,li-ion-backup,6c692d69-6f6e-42d6-9261-636b75702e6b,rev?*
G04 #@! TF.SameCoordinates,Original*
G04 #@! TF.FileFunction,Legend,Top*
G04 #@! TF.FilePolarity,Positive*
%FSLAX46Y46*%
G04 Gerber Fmt 4.6, Leading zero omitted, Abs format (unit mm)*
G04 Created by KiCad (PCBNEW (5.1.5)-3) date 2020-11-04 13:08:40*
%MOMM*%
%LPD*%
G04 APERTURE LIST*
%ADD10C,0.300000*%
%ADD11C,0.500000*%
%ADD12C,0.100000*%
%ADD13C,0.200000*%
%ADD14C,0.120000*%
%ADD15C,0.150000*%
G04 APERTURE END LIST*
D10*
X174624857Y-121959714D02*
X172339142Y-121959714D01*
X174624857Y-86399714D02*
X172339142Y-86399714D01*
X173482000Y-85256857D02*
X173482000Y-87542571D01*
X230207571Y-136309571D02*
X229707571Y-135595285D01*
X229350428Y-136309571D02*
X229350428Y-134809571D01*
X229921857Y-134809571D01*
X230064714Y-134881000D01*
X230136142Y-134952428D01*
X230207571Y-135095285D01*
X230207571Y-135309571D01*
X230136142Y-135452428D01*
X230064714Y-135523857D01*
X229921857Y-135595285D01*
X229350428Y-135595285D01*
X230850428Y-135523857D02*
X231350428Y-135523857D01*
X231564714Y-136309571D02*
X230850428Y-136309571D01*
X230850428Y-134809571D01*
X231564714Y-134809571D01*
X231993285Y-134809571D02*
X232493285Y-136309571D01*
X232993285Y-134809571D01*
X233493285Y-136166714D02*
X233564714Y-136238142D01*
X233493285Y-136309571D01*
X233421857Y-136238142D01*
X233493285Y-136166714D01*
X233493285Y-136309571D01*
X235279000Y-135881000D02*
X235993285Y-135881000D01*
X235136142Y-136309571D02*
X235636142Y-134809571D01*
X236136142Y-136309571D01*
X227279000Y-138859571D02*
X226421857Y-138859571D01*
X226850428Y-138859571D02*
X226850428Y-137359571D01*
X226707571Y-137573857D01*
X226564714Y-137716714D01*
X226421857Y-137788142D01*
X228707571Y-138859571D02*
X227850428Y-138859571D01*
X228279000Y-138859571D02*
X228279000Y-137359571D01*
X228136142Y-137573857D01*
X227993285Y-137716714D01*
X227850428Y-137788142D01*
X230421857Y-137288142D02*
X229136142Y-139216714D01*
X230850428Y-137502428D02*
X230921857Y-137431000D01*
X231064714Y-137359571D01*
X231421857Y-137359571D01*
X231564714Y-137431000D01*
X231636142Y-137502428D01*
X231707571Y-137645285D01*
X231707571Y-137788142D01*
X231636142Y-138002428D01*
X230779000Y-138859571D01*
X231707571Y-138859571D01*
X232636142Y-137359571D02*
X232779000Y-137359571D01*
X232921857Y-137431000D01*
X232993285Y-137502428D01*
X233064714Y-137645285D01*
X233136142Y-137931000D01*
X233136142Y-138288142D01*
X233064714Y-138573857D01*
X232993285Y-138716714D01*
X232921857Y-138788142D01*
X232779000Y-138859571D01*
X232636142Y-138859571D01*
X232493285Y-138788142D01*
X232421857Y-138716714D01*
X232350428Y-138573857D01*
X232279000Y-138288142D01*
X232279000Y-137931000D01*
X232350428Y-137645285D01*
X232421857Y-137502428D01*
X232493285Y-137431000D01*
X232636142Y-137359571D01*
X233707571Y-137502428D02*
X233779000Y-137431000D01*
X233921857Y-137359571D01*
X234279000Y-137359571D01*
X234421857Y-137431000D01*
X234493285Y-137502428D01*
X234564714Y-137645285D01*
X234564714Y-137788142D01*
X234493285Y-138002428D01*
X233636142Y-138859571D01*
X234564714Y-138859571D01*
X235493285Y-137359571D02*
X235636142Y-137359571D01*
X235779000Y-137431000D01*
X235850428Y-137502428D01*
X235921857Y-137645285D01*
X235993285Y-137931000D01*
X235993285Y-138288142D01*
X235921857Y-138573857D01*
X235850428Y-138716714D01*
X235779000Y-138788142D01*
X235636142Y-138859571D01*
X235493285Y-138859571D01*
X235350428Y-138788142D01*
X235279000Y-138716714D01*
X235207571Y-138573857D01*
X235136142Y-138288142D01*
X235136142Y-137931000D01*
X235207571Y-137645285D01*
X235279000Y-137502428D01*
X235350428Y-137431000D01*
X235493285Y-137359571D01*
X207490714Y-137497428D02*
X207562142Y-137426000D01*
X207705000Y-137354571D01*
X208062142Y-137354571D01*
X208205000Y-137426000D01*
X208276428Y-137497428D01*
X208347857Y-137640285D01*
X208347857Y-137783142D01*
X208276428Y-137997428D01*
X207419285Y-138854571D01*
X208347857Y-138854571D01*
X209633571Y-137854571D02*
X209633571Y-138854571D01*
X209276428Y-137283142D02*
X208919285Y-138354571D01*
X209847857Y-138354571D01*
X210205000Y-137354571D02*
X210705000Y-138854571D01*
X211205000Y-137354571D01*
X211705000Y-138854571D02*
X211705000Y-137354571D01*
X212062142Y-137354571D01*
X212276428Y-137426000D01*
X212419285Y-137568857D01*
X212490714Y-137711714D01*
X212562142Y-137997428D01*
X212562142Y-138211714D01*
X212490714Y-138497428D01*
X212419285Y-138640285D01*
X212276428Y-138783142D01*
X212062142Y-138854571D01*
X211705000Y-138854571D01*
X214062142Y-138711714D02*
X213990714Y-138783142D01*
X213776428Y-138854571D01*
X213633571Y-138854571D01*
X213419285Y-138783142D01*
X213276428Y-138640285D01*
X213205000Y-138497428D01*
X213133571Y-138211714D01*
X213133571Y-137997428D01*
X213205000Y-137711714D01*
X213276428Y-137568857D01*
X213419285Y-137426000D01*
X213633571Y-137354571D01*
X213776428Y-137354571D01*
X213990714Y-137426000D01*
X214062142Y-137497428D01*
X215705000Y-137354571D02*
X216633571Y-137354571D01*
X216133571Y-137926000D01*
X216347857Y-137926000D01*
X216490714Y-137997428D01*
X216562142Y-138068857D01*
X216633571Y-138211714D01*
X216633571Y-138568857D01*
X216562142Y-138711714D01*
X216490714Y-138783142D01*
X216347857Y-138854571D01*
X215919285Y-138854571D01*
X215776428Y-138783142D01*
X215705000Y-138711714D01*
X217205000Y-138426000D02*
X217919285Y-138426000D01*
X217062142Y-138854571D02*
X217562142Y-137354571D01*
X218062142Y-138854571D01*
X219705000Y-137354571D02*
X219705000Y-138568857D01*
X219776428Y-138711714D01*
X219847857Y-138783142D01*
X219990714Y-138854571D01*
X220276428Y-138854571D01*
X220419285Y-138783142D01*
X220490714Y-138711714D01*
X220562142Y-138568857D01*
X220562142Y-137354571D01*
X221276428Y-138854571D02*
X221276428Y-137354571D01*
X221847857Y-137354571D01*
X221990714Y-137426000D01*
X222062142Y-137497428D01*
X222133571Y-137640285D01*
X222133571Y-137854571D01*
X222062142Y-137997428D01*
X221990714Y-138068857D01*
X221847857Y-138140285D01*
X221276428Y-138140285D01*
X222705000Y-138783142D02*
X222919285Y-138854571D01*
X223276428Y-138854571D01*
X223419285Y-138783142D01*
X223490714Y-138711714D01*
X223562142Y-138568857D01*
X223562142Y-138426000D01*
X223490714Y-138283142D01*
X223419285Y-138211714D01*
X223276428Y-138140285D01*
X222990714Y-138068857D01*
X222847857Y-137997428D01*
X222776428Y-137926000D01*
X222705000Y-137783142D01*
X222705000Y-137640285D01*
X222776428Y-137497428D01*
X222847857Y-137426000D01*
X222990714Y-137354571D01*
X223347857Y-137354571D01*
X223562142Y-137426000D01*
X188273428Y-60226428D02*
X188273428Y-61226428D01*
X186773428Y-60583571D01*
X187344857Y-61583571D02*
X187416285Y-61655000D01*
X187487714Y-61797857D01*
X187344857Y-62083571D01*
X187416285Y-62226428D01*
X187487714Y-62297857D01*
X188273428Y-62726428D02*
X188273428Y-63655000D01*
X187702000Y-63155000D01*
X187702000Y-63369285D01*
X187630571Y-63512142D01*
X187559142Y-63583571D01*
X187416285Y-63655000D01*
X187059142Y-63655000D01*
X186916285Y-63583571D01*
X186844857Y-63512142D01*
X186773428Y-63369285D01*
X186773428Y-62940714D01*
X186844857Y-62797857D01*
X186916285Y-62726428D01*
X188273428Y-64940714D02*
X188273428Y-64655000D01*
X188202000Y-64512142D01*
X188130571Y-64440714D01*
X187916285Y-64297857D01*
X187630571Y-64226428D01*
X187059142Y-64226428D01*
X186916285Y-64297857D01*
X186844857Y-64369285D01*
X186773428Y-64512142D01*
X186773428Y-64797857D01*
X186844857Y-64940714D01*
X186916285Y-65012142D01*
X187059142Y-65083571D01*
X187416285Y-65083571D01*
X187559142Y-65012142D01*
X187630571Y-64940714D01*
X187702000Y-64797857D01*
X187702000Y-64512142D01*
X187630571Y-64369285D01*
X187559142Y-64297857D01*
X187416285Y-64226428D01*
X188273428Y-65512142D02*
X186773428Y-66012142D01*
X188273428Y-66512142D01*
X186773428Y-67012142D02*
X188273428Y-67012142D01*
X188273428Y-67369285D01*
X188202000Y-67583571D01*
X188059142Y-67726428D01*
X187916285Y-67797857D01*
X187630571Y-67869285D01*
X187416285Y-67869285D01*
X187130571Y-67797857D01*
X186987714Y-67726428D01*
X186844857Y-67583571D01*
X186773428Y-67369285D01*
X186773428Y-67012142D01*
X186916285Y-69369285D02*
X186844857Y-69297857D01*
X186773428Y-69083571D01*
X186773428Y-68940714D01*
X186844857Y-68726428D01*
X186987714Y-68583571D01*
X187130571Y-68512142D01*
X187416285Y-68440714D01*
X187630571Y-68440714D01*
X187916285Y-68512142D01*
X188059142Y-68583571D01*
X188202000Y-68726428D01*
X188273428Y-68940714D01*
X188273428Y-69083571D01*
X188202000Y-69297857D01*
X188130571Y-69369285D01*
D11*
X191642857Y-71159714D02*
X189357142Y-71159714D01*
X190500000Y-70016857D02*
X190500000Y-72302571D01*
X199262857Y-71159714D02*
X196977142Y-71159714D01*
X197985142Y-136977285D02*
X198270857Y-137120142D01*
X198842285Y-137120142D01*
X199128000Y-136977285D01*
X199270857Y-136691571D01*
X199270857Y-136548714D01*
X199128000Y-136263000D01*
X198842285Y-136120142D01*
X198413714Y-136120142D01*
X198128000Y-135977285D01*
X197985142Y-135691571D01*
X197985142Y-135548714D01*
X198128000Y-135263000D01*
X198413714Y-135120142D01*
X198842285Y-135120142D01*
X199128000Y-135263000D01*
X202565142Y-136104285D02*
X204850857Y-136104285D01*
X203708000Y-137247142D02*
X203708000Y-134961428D01*
D12*
G36*
X210820000Y-147574000D02*
G01*
X207264000Y-147574000D01*
X207264000Y-139954000D01*
X210820000Y-139954000D01*
X210820000Y-147574000D01*
G37*
X210820000Y-147574000D02*
X207264000Y-147574000D01*
X207264000Y-139954000D01*
X210820000Y-139954000D01*
X210820000Y-147574000D01*
D10*
X207264000Y-139954000D02*
X207264000Y-147574000D01*
X233426000Y-146558000D02*
X210820000Y-146558000D01*
X233172000Y-146304000D02*
X210820000Y-146304000D01*
X233172000Y-146050000D02*
X210820000Y-146050000D01*
X234696000Y-147320000D02*
X210820000Y-147320000D01*
X233934000Y-146812000D02*
X210820000Y-146812000D01*
X234188000Y-147066000D02*
X210820000Y-147066000D01*
X236220000Y-147574000D02*
X207264000Y-147574000D01*
X232664000Y-145542000D02*
X210820000Y-145542000D01*
X232410000Y-144780000D02*
X210820000Y-144780000D01*
X232918000Y-145796000D02*
X210820000Y-145796000D01*
X232664000Y-145288000D02*
X210820000Y-145288000D01*
X232410000Y-145034000D02*
X210820000Y-145034000D01*
X232410000Y-144526000D02*
X210820000Y-144526000D01*
X232410000Y-144272000D02*
X210820000Y-144272000D01*
X232410000Y-144018000D02*
X210820000Y-144018000D01*
X232410000Y-142748000D02*
X210820000Y-142748000D01*
X232410000Y-143510000D02*
X210820000Y-143510000D01*
X232410000Y-143256000D02*
X210820000Y-143256000D01*
X232410000Y-143764000D02*
X210820000Y-143764000D01*
X232410000Y-143002000D02*
X210820000Y-143002000D01*
X232410000Y-142494000D02*
X210820000Y-142494000D01*
X232664000Y-142240000D02*
X210820000Y-142240000D01*
X232664000Y-141986000D02*
X210820000Y-141986000D01*
X232918000Y-141732000D02*
X210820000Y-141732000D01*
X233172000Y-141478000D02*
X210820000Y-141478000D01*
X233172000Y-141478000D02*
X210820000Y-141478000D01*
X233172000Y-141224000D02*
X210820000Y-141224000D01*
X233426000Y-140970000D02*
X210820000Y-140970000D01*
X233934000Y-140716000D02*
X210820000Y-140716000D01*
X234188000Y-140462000D02*
X210820000Y-140462000D01*
X234696000Y-140208000D02*
X210820000Y-140208000D01*
X236220000Y-139954000D02*
X207264000Y-139954000D01*
X236220000Y-147574000D02*
G75*
G02X236220000Y-139954000I0J3810000D01*
G01*
D13*
X161218571Y-135294095D02*
X161218571Y-134960761D01*
X161742380Y-134817904D02*
X161742380Y-135294095D01*
X160742380Y-135294095D01*
X160742380Y-134817904D01*
X160742380Y-134484571D02*
X161742380Y-133817904D01*
X160742380Y-133817904D02*
X161742380Y-134484571D01*
X160742380Y-133579809D02*
X160742380Y-133008380D01*
X161742380Y-133294095D02*
X160742380Y-133294095D01*
X161742380Y-132103619D02*
X161266190Y-132436952D01*
X161742380Y-132675047D02*
X160742380Y-132675047D01*
X160742380Y-132294095D01*
X160790000Y-132198857D01*
X160837619Y-132151238D01*
X160932857Y-132103619D01*
X161075714Y-132103619D01*
X161170952Y-132151238D01*
X161218571Y-132198857D01*
X161266190Y-132294095D01*
X161266190Y-132675047D01*
X161456666Y-131722666D02*
X161456666Y-131246476D01*
X161742380Y-131817904D02*
X160742380Y-131484571D01*
X161742380Y-131151238D01*
X161218571Y-129722666D02*
X161218571Y-130056000D01*
X161742380Y-130056000D02*
X160742380Y-130056000D01*
X160742380Y-129579809D01*
X160742380Y-129198857D02*
X161551904Y-129198857D01*
X161647142Y-129151238D01*
X161694761Y-129103619D01*
X161742380Y-129008380D01*
X161742380Y-128817904D01*
X161694761Y-128722666D01*
X161647142Y-128675047D01*
X161551904Y-128627428D01*
X160742380Y-128627428D01*
X161694761Y-128198857D02*
X161742380Y-128056000D01*
X161742380Y-127817904D01*
X161694761Y-127722666D01*
X161647142Y-127675047D01*
X161551904Y-127627428D01*
X161456666Y-127627428D01*
X161361428Y-127675047D01*
X161313809Y-127722666D01*
X161266190Y-127817904D01*
X161218571Y-128008380D01*
X161170952Y-128103619D01*
X161123333Y-128151238D01*
X161028095Y-128198857D01*
X160932857Y-128198857D01*
X160837619Y-128151238D01*
X160790000Y-128103619D01*
X160742380Y-128008380D01*
X160742380Y-127770285D01*
X160790000Y-127627428D01*
X161218571Y-127198857D02*
X161218571Y-126865523D01*
X161742380Y-126722666D02*
X161742380Y-127198857D01*
X160742380Y-127198857D01*
X160742380Y-126722666D01*
X161694761Y-126341714D02*
X161742380Y-126198857D01*
X161742380Y-125960761D01*
X161694761Y-125865523D01*
X161647142Y-125817904D01*
X161551904Y-125770285D01*
X161456666Y-125770285D01*
X161361428Y-125817904D01*
X161313809Y-125865523D01*
X161266190Y-125960761D01*
X161218571Y-126151238D01*
X161170952Y-126246476D01*
X161123333Y-126294095D01*
X161028095Y-126341714D01*
X160932857Y-126341714D01*
X160837619Y-126294095D01*
X160790000Y-126246476D01*
X160742380Y-126151238D01*
X160742380Y-125913142D01*
X160790000Y-125770285D01*
D11*
X186055142Y-136104285D02*
X188340857Y-136104285D01*
X193421142Y-136104285D02*
X195706857Y-136104285D01*
X194564000Y-137247142D02*
X194564000Y-134961428D01*
D13*
X200334571Y-122840380D02*
X200382190Y-122697523D01*
X200429809Y-122649904D01*
X200525047Y-122602285D01*
X200667904Y-122602285D01*
X200763142Y-122649904D01*
X200810761Y-122697523D01*
X200858380Y-122792761D01*
X200858380Y-123173714D01*
X199858380Y-123173714D01*
X199858380Y-122840380D01*
X199906000Y-122745142D01*
X199953619Y-122697523D01*
X200048857Y-122649904D01*
X200144095Y-122649904D01*
X200239333Y-122697523D01*
X200286952Y-122745142D01*
X200334571Y-122840380D01*
X200334571Y-123173714D01*
X199858380Y-121983238D02*
X199858380Y-121792761D01*
X199906000Y-121697523D01*
X200001238Y-121602285D01*
X200191714Y-121554666D01*
X200525047Y-121554666D01*
X200715523Y-121602285D01*
X200810761Y-121697523D01*
X200858380Y-121792761D01*
X200858380Y-121983238D01*
X200810761Y-122078476D01*
X200715523Y-122173714D01*
X200525047Y-122221333D01*
X200191714Y-122221333D01*
X200001238Y-122173714D01*
X199906000Y-122078476D01*
X199858380Y-121983238D01*
X199858380Y-120935619D02*
X199858380Y-120745142D01*
X199906000Y-120649904D01*
X200001238Y-120554666D01*
X200191714Y-120507047D01*
X200525047Y-120507047D01*
X200715523Y-120554666D01*
X200810761Y-120649904D01*
X200858380Y-120745142D01*
X200858380Y-120935619D01*
X200810761Y-121030857D01*
X200715523Y-121126095D01*
X200525047Y-121173714D01*
X200191714Y-121173714D01*
X200001238Y-121126095D01*
X199906000Y-121030857D01*
X199858380Y-120935619D01*
X200810761Y-120126095D02*
X200858380Y-119983238D01*
X200858380Y-119745142D01*
X200810761Y-119649904D01*
X200763142Y-119602285D01*
X200667904Y-119554666D01*
X200572666Y-119554666D01*
X200477428Y-119602285D01*
X200429809Y-119649904D01*
X200382190Y-119745142D01*
X200334571Y-119935619D01*
X200286952Y-120030857D01*
X200239333Y-120078476D01*
X200144095Y-120126095D01*
X200048857Y-120126095D01*
X199953619Y-120078476D01*
X199906000Y-120030857D01*
X199858380Y-119935619D01*
X199858380Y-119697523D01*
X199906000Y-119554666D01*
X199858380Y-119268952D02*
X199858380Y-118697523D01*
X200858380Y-118983238D02*
X199858380Y-118983238D01*
X200858380Y-117602285D02*
X199858380Y-117602285D01*
X200763142Y-116554666D02*
X200810761Y-116602285D01*
X200858380Y-116745142D01*
X200858380Y-116840380D01*
X200810761Y-116983238D01*
X200715523Y-117078476D01*
X200620285Y-117126095D01*
X200429809Y-117173714D01*
X200286952Y-117173714D01*
X200096476Y-117126095D01*
X200001238Y-117078476D01*
X199906000Y-116983238D01*
X199858380Y-116840380D01*
X199858380Y-116745142D01*
X199906000Y-116602285D01*
X199953619Y-116554666D01*
X188254190Y-112625142D02*
X188206571Y-112672761D01*
X188063714Y-112720380D01*
X187968476Y-112720380D01*
X187825619Y-112672761D01*
X187730380Y-112577523D01*
X187682761Y-112482285D01*
X187635142Y-112291809D01*
X187635142Y-112148952D01*
X187682761Y-111958476D01*
X187730380Y-111863238D01*
X187825619Y-111768000D01*
X187968476Y-111720380D01*
X188063714Y-111720380D01*
X188206571Y-111768000D01*
X188254190Y-111815619D01*
X188682761Y-112720380D02*
X188682761Y-111720380D01*
X188682761Y-112196571D02*
X189254190Y-112196571D01*
X189254190Y-112720380D02*
X189254190Y-111720380D01*
X189682761Y-112434666D02*
X190158952Y-112434666D01*
X189587523Y-112720380D02*
X189920857Y-111720380D01*
X190254190Y-112720380D01*
X191158952Y-112720380D02*
X190825619Y-112244190D01*
X190587523Y-112720380D02*
X190587523Y-111720380D01*
X190968476Y-111720380D01*
X191063714Y-111768000D01*
X191111333Y-111815619D01*
X191158952Y-111910857D01*
X191158952Y-112053714D01*
X191111333Y-112148952D01*
X191063714Y-112196571D01*
X190968476Y-112244190D01*
X190587523Y-112244190D01*
X192111333Y-111768000D02*
X192016095Y-111720380D01*
X191873238Y-111720380D01*
X191730380Y-111768000D01*
X191635142Y-111863238D01*
X191587523Y-111958476D01*
X191539904Y-112148952D01*
X191539904Y-112291809D01*
X191587523Y-112482285D01*
X191635142Y-112577523D01*
X191730380Y-112672761D01*
X191873238Y-112720380D01*
X191968476Y-112720380D01*
X192111333Y-112672761D01*
X192158952Y-112625142D01*
X192158952Y-112291809D01*
X191968476Y-112291809D01*
X192587523Y-112720380D02*
X192587523Y-111720380D01*
X193063714Y-112720380D02*
X193063714Y-111720380D01*
X193635142Y-112720380D01*
X193635142Y-111720380D01*
X194635142Y-111768000D02*
X194539904Y-111720380D01*
X194397047Y-111720380D01*
X194254190Y-111768000D01*
X194158952Y-111863238D01*
X194111333Y-111958476D01*
X194063714Y-112148952D01*
X194063714Y-112291809D01*
X194111333Y-112482285D01*
X194158952Y-112577523D01*
X194254190Y-112672761D01*
X194397047Y-112720380D01*
X194492285Y-112720380D01*
X194635142Y-112672761D01*
X194682761Y-112625142D01*
X194682761Y-112291809D01*
X194492285Y-112291809D01*
X195873238Y-112720380D02*
X195873238Y-111720380D01*
X196920857Y-112625142D02*
X196873238Y-112672761D01*
X196730380Y-112720380D01*
X196635142Y-112720380D01*
X196492285Y-112672761D01*
X196397047Y-112577523D01*
X196349428Y-112482285D01*
X196301809Y-112291809D01*
X196301809Y-112148952D01*
X196349428Y-111958476D01*
X196397047Y-111863238D01*
X196492285Y-111768000D01*
X196635142Y-111720380D01*
X196730380Y-111720380D01*
X196873238Y-111768000D01*
X196920857Y-111815619D01*
X155884571Y-111016285D02*
X155884571Y-110682952D01*
X156408380Y-110540095D02*
X156408380Y-111016285D01*
X155408380Y-111016285D01*
X155408380Y-110540095D01*
X156408380Y-109540095D02*
X155932190Y-109873428D01*
X156408380Y-110111523D02*
X155408380Y-110111523D01*
X155408380Y-109730571D01*
X155456000Y-109635333D01*
X155503619Y-109587714D01*
X155598857Y-109540095D01*
X155741714Y-109540095D01*
X155836952Y-109587714D01*
X155884571Y-109635333D01*
X155932190Y-109730571D01*
X155932190Y-110111523D01*
X156408380Y-108540095D02*
X155932190Y-108873428D01*
X156408380Y-109111523D02*
X155408380Y-109111523D01*
X155408380Y-108730571D01*
X155456000Y-108635333D01*
X155503619Y-108587714D01*
X155598857Y-108540095D01*
X155741714Y-108540095D01*
X155836952Y-108587714D01*
X155884571Y-108635333D01*
X155932190Y-108730571D01*
X155932190Y-109111523D01*
X155408380Y-107921047D02*
X155408380Y-107730571D01*
X155456000Y-107635333D01*
X155551238Y-107540095D01*
X155741714Y-107492476D01*
X156075047Y-107492476D01*
X156265523Y-107540095D01*
X156360761Y-107635333D01*
X156408380Y-107730571D01*
X156408380Y-107921047D01*
X156360761Y-108016285D01*
X156265523Y-108111523D01*
X156075047Y-108159142D01*
X155741714Y-108159142D01*
X155551238Y-108111523D01*
X155456000Y-108016285D01*
X155408380Y-107921047D01*
X156408380Y-106492476D02*
X155932190Y-106825809D01*
X156408380Y-107063904D02*
X155408380Y-107063904D01*
X155408380Y-106682952D01*
X155456000Y-106587714D01*
X155503619Y-106540095D01*
X155598857Y-106492476D01*
X155741714Y-106492476D01*
X155836952Y-106540095D01*
X155884571Y-106587714D01*
X155932190Y-106682952D01*
X155932190Y-107063904D01*
X159408761Y-111444857D02*
X159456380Y-111302000D01*
X159456380Y-111063904D01*
X159408761Y-110968666D01*
X159361142Y-110921047D01*
X159265904Y-110873428D01*
X159170666Y-110873428D01*
X159075428Y-110921047D01*
X159027809Y-110968666D01*
X158980190Y-111063904D01*
X158932571Y-111254380D01*
X158884952Y-111349619D01*
X158837333Y-111397238D01*
X158742095Y-111444857D01*
X158646857Y-111444857D01*
X158551619Y-111397238D01*
X158504000Y-111349619D01*
X158456380Y-111254380D01*
X158456380Y-111016285D01*
X158504000Y-110873428D01*
X158456380Y-110587714D02*
X158456380Y-110016285D01*
X159456380Y-110302000D02*
X158456380Y-110302000D01*
X159170666Y-109730571D02*
X159170666Y-109254380D01*
X159456380Y-109825809D02*
X158456380Y-109492476D01*
X159456380Y-109159142D01*
X158456380Y-108968666D02*
X158456380Y-108397238D01*
X159456380Y-108682952D02*
X158456380Y-108682952D01*
X158456380Y-108063904D02*
X159265904Y-108063904D01*
X159361142Y-108016285D01*
X159408761Y-107968666D01*
X159456380Y-107873428D01*
X159456380Y-107682952D01*
X159408761Y-107587714D01*
X159361142Y-107540095D01*
X159265904Y-107492476D01*
X158456380Y-107492476D01*
X159408761Y-107063904D02*
X159456380Y-106921047D01*
X159456380Y-106682952D01*
X159408761Y-106587714D01*
X159361142Y-106540095D01*
X159265904Y-106492476D01*
X159170666Y-106492476D01*
X159075428Y-106540095D01*
X159027809Y-106587714D01*
X158980190Y-106682952D01*
X158932571Y-106873428D01*
X158884952Y-106968666D01*
X158837333Y-107016285D01*
X158742095Y-107063904D01*
X158646857Y-107063904D01*
X158551619Y-107016285D01*
X158504000Y-106968666D01*
X158456380Y-106873428D01*
X158456380Y-106635333D01*
X158504000Y-106492476D01*
X201017142Y-111836476D02*
X201064761Y-111884095D01*
X201112380Y-112026952D01*
X201112380Y-112122190D01*
X201064761Y-112265047D01*
X200969523Y-112360285D01*
X200874285Y-112407904D01*
X200683809Y-112455523D01*
X200540952Y-112455523D01*
X200350476Y-112407904D01*
X200255238Y-112360285D01*
X200160000Y-112265047D01*
X200112380Y-112122190D01*
X200112380Y-112026952D01*
X200160000Y-111884095D01*
X200207619Y-111836476D01*
X201112380Y-111407904D02*
X200112380Y-111407904D01*
X200588571Y-111407904D02*
X200588571Y-110836476D01*
X201112380Y-110836476D02*
X200112380Y-110836476D01*
X200826666Y-110407904D02*
X200826666Y-109931714D01*
X201112380Y-110503142D02*
X200112380Y-110169809D01*
X201112380Y-109836476D01*
X201112380Y-108931714D02*
X200636190Y-109265047D01*
X201112380Y-109503142D02*
X200112380Y-109503142D01*
X200112380Y-109122190D01*
X200160000Y-109026952D01*
X200207619Y-108979333D01*
X200302857Y-108931714D01*
X200445714Y-108931714D01*
X200540952Y-108979333D01*
X200588571Y-109026952D01*
X200636190Y-109122190D01*
X200636190Y-109503142D01*
X200160000Y-107979333D02*
X200112380Y-108074571D01*
X200112380Y-108217428D01*
X200160000Y-108360285D01*
X200255238Y-108455523D01*
X200350476Y-108503142D01*
X200540952Y-108550761D01*
X200683809Y-108550761D01*
X200874285Y-108503142D01*
X200969523Y-108455523D01*
X201064761Y-108360285D01*
X201112380Y-108217428D01*
X201112380Y-108122190D01*
X201064761Y-107979333D01*
X201017142Y-107931714D01*
X200683809Y-107931714D01*
X200683809Y-108122190D01*
X201112380Y-107503142D02*
X200112380Y-107503142D01*
X201112380Y-107026952D02*
X200112380Y-107026952D01*
X201112380Y-106455523D01*
X200112380Y-106455523D01*
X200160000Y-105455523D02*
X200112380Y-105550761D01*
X200112380Y-105693619D01*
X200160000Y-105836476D01*
X200255238Y-105931714D01*
X200350476Y-105979333D01*
X200540952Y-106026952D01*
X200683809Y-106026952D01*
X200874285Y-105979333D01*
X200969523Y-105931714D01*
X201064761Y-105836476D01*
X201112380Y-105693619D01*
X201112380Y-105598380D01*
X201064761Y-105455523D01*
X201017142Y-105407904D01*
X200683809Y-105407904D01*
X200683809Y-105598380D01*
X203350761Y-112455523D02*
X203398380Y-112312666D01*
X203398380Y-112074571D01*
X203350761Y-111979333D01*
X203303142Y-111931714D01*
X203207904Y-111884095D01*
X203112666Y-111884095D01*
X203017428Y-111931714D01*
X202969809Y-111979333D01*
X202922190Y-112074571D01*
X202874571Y-112265047D01*
X202826952Y-112360285D01*
X202779333Y-112407904D01*
X202684095Y-112455523D01*
X202588857Y-112455523D01*
X202493619Y-112407904D01*
X202446000Y-112360285D01*
X202398380Y-112265047D01*
X202398380Y-112026952D01*
X202446000Y-111884095D01*
X202398380Y-111598380D02*
X202398380Y-111026952D01*
X203398380Y-111312666D02*
X202398380Y-111312666D01*
X203112666Y-110741238D02*
X203112666Y-110265047D01*
X203398380Y-110836476D02*
X202398380Y-110503142D01*
X203398380Y-110169809D01*
X203398380Y-109836476D02*
X202398380Y-109836476D01*
X203398380Y-109265047D01*
X202398380Y-109265047D01*
X203398380Y-108788857D02*
X202398380Y-108788857D01*
X202398380Y-108550761D01*
X202446000Y-108407904D01*
X202541238Y-108312666D01*
X202636476Y-108265047D01*
X202826952Y-108217428D01*
X202969809Y-108217428D01*
X203160285Y-108265047D01*
X203255523Y-108312666D01*
X203350761Y-108407904D01*
X203398380Y-108550761D01*
X203398380Y-108788857D01*
X202874571Y-106693619D02*
X202922190Y-106550761D01*
X202969809Y-106503142D01*
X203065047Y-106455523D01*
X203207904Y-106455523D01*
X203303142Y-106503142D01*
X203350761Y-106550761D01*
X203398380Y-106646000D01*
X203398380Y-107026952D01*
X202398380Y-107026952D01*
X202398380Y-106693619D01*
X202446000Y-106598380D01*
X202493619Y-106550761D01*
X202588857Y-106503142D01*
X202684095Y-106503142D01*
X202779333Y-106550761D01*
X202826952Y-106598380D01*
X202874571Y-106693619D01*
X202874571Y-107026952D01*
X202922190Y-105836476D02*
X203398380Y-105836476D01*
X202398380Y-106169809D02*
X202922190Y-105836476D01*
X202398380Y-105503142D01*
X186873238Y-91384380D02*
X186873238Y-90384380D01*
X187254190Y-90384380D01*
X187349428Y-90432000D01*
X187397047Y-90479619D01*
X187444666Y-90574857D01*
X187444666Y-90717714D01*
X187397047Y-90812952D01*
X187349428Y-90860571D01*
X187254190Y-90908190D01*
X186873238Y-90908190D01*
X188444666Y-91384380D02*
X188111333Y-90908190D01*
X187873238Y-91384380D02*
X187873238Y-90384380D01*
X188254190Y-90384380D01*
X188349428Y-90432000D01*
X188397047Y-90479619D01*
X188444666Y-90574857D01*
X188444666Y-90717714D01*
X188397047Y-90812952D01*
X188349428Y-90860571D01*
X188254190Y-90908190D01*
X187873238Y-90908190D01*
X189063714Y-90384380D02*
X189254190Y-90384380D01*
X189349428Y-90432000D01*
X189444666Y-90527238D01*
X189492285Y-90717714D01*
X189492285Y-91051047D01*
X189444666Y-91241523D01*
X189349428Y-91336761D01*
X189254190Y-91384380D01*
X189063714Y-91384380D01*
X188968476Y-91336761D01*
X188873238Y-91241523D01*
X188825619Y-91051047D01*
X188825619Y-90717714D01*
X188873238Y-90527238D01*
X188968476Y-90432000D01*
X189063714Y-90384380D01*
X189778000Y-90384380D02*
X190349428Y-90384380D01*
X190063714Y-91384380D02*
X190063714Y-90384380D01*
X190682761Y-90860571D02*
X191016095Y-90860571D01*
X191158952Y-91384380D02*
X190682761Y-91384380D01*
X190682761Y-90384380D01*
X191158952Y-90384380D01*
X192158952Y-91289142D02*
X192111333Y-91336761D01*
X191968476Y-91384380D01*
X191873238Y-91384380D01*
X191730380Y-91336761D01*
X191635142Y-91241523D01*
X191587523Y-91146285D01*
X191539904Y-90955809D01*
X191539904Y-90812952D01*
X191587523Y-90622476D01*
X191635142Y-90527238D01*
X191730380Y-90432000D01*
X191873238Y-90384380D01*
X191968476Y-90384380D01*
X192111333Y-90432000D01*
X192158952Y-90479619D01*
X192444666Y-90384380D02*
X193016095Y-90384380D01*
X192730380Y-91384380D02*
X192730380Y-90384380D01*
X193349428Y-91384380D02*
X193349428Y-90384380D01*
X194016095Y-90384380D02*
X194206571Y-90384380D01*
X194301809Y-90432000D01*
X194397047Y-90527238D01*
X194444666Y-90717714D01*
X194444666Y-91051047D01*
X194397047Y-91241523D01*
X194301809Y-91336761D01*
X194206571Y-91384380D01*
X194016095Y-91384380D01*
X193920857Y-91336761D01*
X193825619Y-91241523D01*
X193778000Y-91051047D01*
X193778000Y-90717714D01*
X193825619Y-90527238D01*
X193920857Y-90432000D01*
X194016095Y-90384380D01*
X194873238Y-91384380D02*
X194873238Y-90384380D01*
X195444666Y-91384380D01*
X195444666Y-90384380D01*
X196682761Y-91384380D02*
X196682761Y-90384380D01*
X197730380Y-91289142D02*
X197682761Y-91336761D01*
X197539904Y-91384380D01*
X197444666Y-91384380D01*
X197301809Y-91336761D01*
X197206571Y-91241523D01*
X197158952Y-91146285D01*
X197111333Y-90955809D01*
X197111333Y-90812952D01*
X197158952Y-90622476D01*
X197206571Y-90527238D01*
X197301809Y-90432000D01*
X197444666Y-90384380D01*
X197539904Y-90384380D01*
X197682761Y-90432000D01*
X197730380Y-90479619D01*
D12*
G36*
X177800000Y-120142000D02*
G01*
X169164000Y-120142000D01*
X169164000Y-119380000D01*
X177800000Y-119380000D01*
X177800000Y-120142000D01*
G37*
X177800000Y-120142000D02*
X169164000Y-120142000D01*
X169164000Y-119380000D01*
X177800000Y-119380000D01*
X177800000Y-120142000D01*
D14*
X207552000Y-111946000D02*
X207552000Y-108746000D01*
X207552000Y-108746000D02*
X218152000Y-108746000D01*
X218152000Y-108746000D02*
X218152000Y-111946000D01*
X218152000Y-116146000D02*
X218152000Y-119346000D01*
X218152000Y-119346000D02*
X207552000Y-119346000D01*
X207552000Y-119346000D02*
X207552000Y-116146000D01*
X219676000Y-67124000D02*
X219676000Y-70324000D01*
X219676000Y-70324000D02*
X209076000Y-70324000D01*
X209076000Y-70324000D02*
X209076000Y-67124000D01*
X209076000Y-62924000D02*
X209076000Y-59724000D01*
X209076000Y-59724000D02*
X219676000Y-59724000D01*
X219676000Y-59724000D02*
X219676000Y-62924000D01*
X218152000Y-128084000D02*
X218152000Y-131284000D01*
X218152000Y-131284000D02*
X207552000Y-131284000D01*
X207552000Y-131284000D02*
X207552000Y-128084000D01*
X207552000Y-123884000D02*
X207552000Y-120684000D01*
X207552000Y-120684000D02*
X218152000Y-120684000D01*
X218152000Y-120684000D02*
X218152000Y-123884000D01*
X207552000Y-88324000D02*
X207552000Y-85124000D01*
X207552000Y-85124000D02*
X218152000Y-85124000D01*
X218152000Y-85124000D02*
X218152000Y-88324000D01*
X218152000Y-92524000D02*
X218152000Y-95724000D01*
X218152000Y-95724000D02*
X207552000Y-95724000D01*
X207552000Y-95724000D02*
X207552000Y-92524000D01*
X218152000Y-104462000D02*
X218152000Y-107662000D01*
X218152000Y-107662000D02*
X207552000Y-107662000D01*
X207552000Y-107662000D02*
X207552000Y-104462000D01*
X207552000Y-100262000D02*
X207552000Y-97062000D01*
X207552000Y-97062000D02*
X218152000Y-97062000D01*
X218152000Y-97062000D02*
X218152000Y-100262000D01*
X186882000Y-121920000D02*
G75*
G03X186882000Y-121920000I-700000J0D01*
G01*
X202998000Y-91689422D02*
X202998000Y-92206578D01*
X204418000Y-91689422D02*
X204418000Y-92206578D01*
X202188578Y-132640000D02*
X201671422Y-132640000D01*
X202188578Y-134060000D02*
X201671422Y-134060000D01*
X202188578Y-130354000D02*
X201671422Y-130354000D01*
X202188578Y-131774000D02*
X201671422Y-131774000D01*
X203392000Y-81280000D02*
G75*
G03X203392000Y-81280000I-700000J0D01*
G01*
X222696000Y-135128000D02*
G75*
G03X222696000Y-135128000I-700000J0D01*
G01*
X204851000Y-147574000D02*
X206121000Y-147574000D01*
X199751000Y-147574000D02*
X202565000Y-147574000D01*
X196068000Y-147574000D02*
X197485000Y-147574000D01*
X204851000Y-146110000D02*
X206121000Y-146110000D01*
X199751000Y-146110000D02*
X202565000Y-146110000D01*
X202528000Y-144533000D02*
X202481000Y-144579000D01*
X204825000Y-142235000D02*
X204790000Y-142271000D01*
X202721000Y-144749000D02*
X202686000Y-144784000D01*
X205030000Y-142441000D02*
X204983000Y-142487000D01*
X206188000Y-138249000D02*
X206188000Y-148170000D01*
X196068000Y-138249000D02*
X196068000Y-148170000D01*
X196068000Y-148170000D02*
X206188000Y-148170000D01*
X196068000Y-138249000D02*
X206188000Y-138249000D01*
X196068000Y-141209000D02*
X206188000Y-141209000D01*
X196068000Y-146110000D02*
X197485000Y-146110000D01*
X205435000Y-143510000D02*
G75*
G03X205435000Y-143510000I-1680000J0D01*
G01*
X198656805Y-145190253D02*
G75*
G02X197944000Y-145045000I-28805J1680253D01*
G01*
X197092574Y-144193042D02*
G75*
G02X197093000Y-142826000I1535426J683042D01*
G01*
X197944958Y-141974574D02*
G75*
G02X199312000Y-141975000I683042J-1535426D01*
G01*
X200163426Y-142826958D02*
G75*
G02X200163000Y-144194000I-1535426J-683042D01*
G01*
X199311318Y-145044756D02*
G75*
G02X198628000Y-145190000I-683318J1534756D01*
G01*
X213552000Y-135128000D02*
G75*
G03X213552000Y-135128000I-700000J0D01*
G01*
X210504000Y-135128000D02*
G75*
G03X210504000Y-135128000I-700000J0D01*
G01*
X216600000Y-135128000D02*
G75*
G03X216600000Y-135128000I-700000J0D01*
G01*
X203392000Y-78740000D02*
G75*
G03X203392000Y-78740000I-700000J0D01*
G01*
X186882000Y-119380000D02*
G75*
G03X186882000Y-119380000I-700000J0D01*
G01*
X219648000Y-135128000D02*
G75*
G03X219648000Y-135128000I-700000J0D01*
G01*
X203392000Y-76200000D02*
G75*
G03X203392000Y-76200000I-700000J0D01*
G01*
X203392000Y-73660000D02*
G75*
G03X203392000Y-73660000I-700000J0D01*
G01*
X157131936Y-137308000D02*
X158336064Y-137308000D01*
X157131936Y-135488000D02*
X158336064Y-135488000D01*
X157131936Y-134260000D02*
X158336064Y-134260000D01*
X157131936Y-132440000D02*
X158336064Y-132440000D01*
X157131936Y-131466000D02*
X158336064Y-131466000D01*
X157131936Y-129646000D02*
X158336064Y-129646000D01*
X157131936Y-128418000D02*
X158336064Y-128418000D01*
X157131936Y-126598000D02*
X158336064Y-126598000D01*
X157131936Y-125370000D02*
X158336064Y-125370000D01*
X157131936Y-123550000D02*
X158336064Y-123550000D01*
X194051422Y-130504000D02*
X194568578Y-130504000D01*
X194051422Y-129084000D02*
X194568578Y-129084000D01*
X190241422Y-130504000D02*
X190758578Y-130504000D01*
X190241422Y-129084000D02*
X190758578Y-129084000D01*
X201671422Y-129488000D02*
X202188578Y-129488000D01*
X201671422Y-128068000D02*
X202188578Y-128068000D01*
X202188578Y-125528000D02*
X201671422Y-125528000D01*
X202188578Y-126948000D02*
X201671422Y-126948000D01*
X185110000Y-130554000D02*
X185110000Y-129094000D01*
X188270000Y-130554000D02*
X188270000Y-128394000D01*
X188270000Y-130554000D02*
X187340000Y-130554000D01*
X185110000Y-130554000D02*
X186040000Y-130554000D01*
X196540000Y-130554000D02*
X196540000Y-129094000D01*
X199700000Y-130554000D02*
X199700000Y-128394000D01*
X199700000Y-130554000D02*
X198770000Y-130554000D01*
X196540000Y-130554000D02*
X197470000Y-130554000D01*
D13*
X173513000Y-135701000D02*
X173513000Y-138201000D01*
X172263000Y-70784000D02*
X174763000Y-70784000D01*
X173513000Y-69534000D02*
X173513000Y-72034000D01*
X175480000Y-88392000D02*
X175480000Y-89154000D01*
X171450000Y-88392000D02*
X171450000Y-89154000D01*
X175480000Y-88392000D02*
X171450000Y-88392000D01*
X177818000Y-89218000D02*
X169164000Y-89218000D01*
X177818000Y-89218000D02*
X177818000Y-118618000D01*
X169164000Y-89218000D02*
X169164000Y-118618000D01*
X177818000Y-118618000D02*
X169164000Y-118618000D01*
X178232000Y-61386000D02*
X180732000Y-61386000D01*
X179482000Y-60136000D02*
X179482000Y-62636000D01*
X179482000Y-147636000D02*
X179482000Y-145136000D01*
X176922000Y-142526000D02*
X183902000Y-142526000D01*
X183922000Y-142526000D02*
X183922000Y-65246000D01*
X183922000Y-65246000D02*
X176922000Y-65246000D01*
X170042000Y-142526000D02*
X163042000Y-142526000D01*
X163042000Y-142526000D02*
X163042000Y-65246000D01*
X163042000Y-65246000D02*
X170042000Y-65246000D01*
X176922000Y-65246000D02*
X176922000Y-60886000D01*
D14*
X194691000Y-147574000D02*
X195961000Y-147574000D01*
X189591000Y-147574000D02*
X192405000Y-147574000D01*
X185908000Y-147574000D02*
X187325000Y-147574000D01*
X194691000Y-146110000D02*
X195961000Y-146110000D01*
X189591000Y-146110000D02*
X192405000Y-146110000D01*
X185668000Y-148410000D02*
X186168000Y-148410000D01*
X185668000Y-147670000D02*
X185668000Y-148410000D01*
X192368000Y-144533000D02*
X192321000Y-144579000D01*
X194665000Y-142235000D02*
X194630000Y-142271000D01*
X192561000Y-144749000D02*
X192526000Y-144784000D01*
X194870000Y-142441000D02*
X194823000Y-142487000D01*
X196028000Y-138249000D02*
X196028000Y-148170000D01*
X185908000Y-138249000D02*
X185908000Y-148170000D01*
X185908000Y-148170000D02*
X196028000Y-148170000D01*
X185908000Y-138249000D02*
X196028000Y-138249000D01*
X185908000Y-141209000D02*
X196028000Y-141209000D01*
X185908000Y-146110000D02*
X187325000Y-146110000D01*
X195275000Y-143510000D02*
G75*
G03X195275000Y-143510000I-1680000J0D01*
G01*
X188496805Y-145190253D02*
G75*
G02X187784000Y-145045000I-28805J1680253D01*
G01*
X186932574Y-144193042D02*
G75*
G02X186933000Y-142826000I1535426J683042D01*
G01*
X187784958Y-141974574D02*
G75*
G02X189152000Y-141975000I683042J-1535426D01*
G01*
X190003426Y-142826958D02*
G75*
G02X190003000Y-144194000I-1535426J-683042D01*
G01*
X189151318Y-145044756D02*
G75*
G02X188468000Y-145190000I-683318J1534756D01*
G01*
X190881000Y-59944000D02*
X189611000Y-59944000D01*
X195981000Y-59944000D02*
X193167000Y-59944000D01*
X199664000Y-59944000D02*
X198247000Y-59944000D01*
X190881000Y-61408000D02*
X189611000Y-61408000D01*
X195981000Y-61408000D02*
X193167000Y-61408000D01*
X199904000Y-59108000D02*
X199404000Y-59108000D01*
X199904000Y-59848000D02*
X199904000Y-59108000D01*
X193204000Y-62985000D02*
X193251000Y-62939000D01*
X190907000Y-65283000D02*
X190942000Y-65247000D01*
X193011000Y-62769000D02*
X193046000Y-62734000D01*
X190702000Y-65077000D02*
X190749000Y-65031000D01*
X189544000Y-69269000D02*
X189544000Y-59348000D01*
X199664000Y-69269000D02*
X199664000Y-59348000D01*
X199664000Y-59348000D02*
X189544000Y-59348000D01*
X199664000Y-69269000D02*
X189544000Y-69269000D01*
X199664000Y-66309000D02*
X189544000Y-66309000D01*
X199664000Y-61408000D02*
X198247000Y-61408000D01*
X193657000Y-64008000D02*
G75*
G03X193657000Y-64008000I-1680000J0D01*
G01*
X197075195Y-62327747D02*
G75*
G02X197788000Y-62473000I28805J-1680253D01*
G01*
X198639426Y-63324958D02*
G75*
G02X198639000Y-64692000I-1535426J-683042D01*
G01*
X197787042Y-65543426D02*
G75*
G02X196420000Y-65543000I-683042J1535426D01*
G01*
X195568574Y-64691042D02*
G75*
G02X195569000Y-63324000I1535426J683042D01*
G01*
X196420682Y-62473244D02*
G75*
G02X197104000Y-62328000I683318J-1534756D01*
G01*
X194056000Y-99040000D02*
X190606000Y-99040000D01*
X194056000Y-99040000D02*
X196006000Y-99040000D01*
X194056000Y-104160000D02*
X192106000Y-104160000D01*
X194056000Y-104160000D02*
X196006000Y-104160000D01*
X191176000Y-84063000D02*
X191176000Y-86513000D01*
X194396000Y-85863000D02*
X194396000Y-84063000D01*
X226666000Y-79688000D02*
X225566000Y-79688000D01*
X226666000Y-80638000D02*
X226666000Y-79688000D01*
X228166000Y-80638000D02*
X226666000Y-80638000D01*
X226666000Y-71188000D02*
X221541000Y-71188000D01*
X226666000Y-70238000D02*
X226666000Y-71188000D01*
X228166000Y-70238000D02*
X226666000Y-70238000D01*
X194448000Y-117008000D02*
X191998000Y-117008000D01*
X192648000Y-120228000D02*
X194448000Y-120228000D01*
X188162000Y-100588578D02*
X188162000Y-100071422D01*
X186742000Y-100588578D02*
X186742000Y-100071422D01*
X197198064Y-96118000D02*
X195993936Y-96118000D01*
X197198064Y-97938000D02*
X195993936Y-97938000D01*
X192118064Y-96118000D02*
X190913936Y-96118000D01*
X192118064Y-97938000D02*
X190913936Y-97938000D01*
X201370000Y-103636578D02*
X201370000Y-103119422D01*
X199950000Y-103636578D02*
X199950000Y-103119422D01*
X202236000Y-103119422D02*
X202236000Y-103636578D01*
X203656000Y-103119422D02*
X203656000Y-103636578D01*
X219658000Y-80014578D02*
X219658000Y-79497422D01*
X218238000Y-80014578D02*
X218238000Y-79497422D01*
X217118000Y-80014578D02*
X217118000Y-79497422D01*
X215698000Y-80014578D02*
X215698000Y-79497422D01*
X212038000Y-80014578D02*
X212038000Y-79497422D01*
X210618000Y-80014578D02*
X210618000Y-79497422D01*
X212038000Y-75950578D02*
X212038000Y-75433422D01*
X210618000Y-75950578D02*
X210618000Y-75433422D01*
X197108578Y-87301000D02*
X196591422Y-87301000D01*
X197108578Y-88721000D02*
X196591422Y-88721000D01*
X190956000Y-118876578D02*
X190956000Y-118359422D01*
X189536000Y-118876578D02*
X189536000Y-118359422D01*
X190956000Y-123194578D02*
X190956000Y-122677422D01*
X189536000Y-123194578D02*
X189536000Y-122677422D01*
X195067422Y-82117000D02*
X195584578Y-82117000D01*
X195067422Y-80697000D02*
X195584578Y-80697000D01*
X188774000Y-78100422D02*
X188774000Y-78617578D01*
X190194000Y-78100422D02*
X190194000Y-78617578D01*
X195378000Y-78100422D02*
X195378000Y-78617578D01*
X196798000Y-78100422D02*
X196798000Y-78617578D01*
X192527422Y-78307000D02*
X193044578Y-78307000D01*
X192527422Y-76887000D02*
X193044578Y-76887000D01*
X195378000Y-74036422D02*
X195378000Y-74553578D01*
X196798000Y-74036422D02*
X196798000Y-74553578D01*
X213158000Y-75433422D02*
X213158000Y-75950578D01*
X214578000Y-75433422D02*
X214578000Y-75950578D01*
X190194000Y-74553578D02*
X190194000Y-74036422D01*
X188774000Y-74553578D02*
X188774000Y-74036422D01*
X158294000Y-103881422D02*
X158294000Y-104398578D01*
X159714000Y-103881422D02*
X159714000Y-104398578D01*
X156666000Y-104398578D02*
X156666000Y-103881422D01*
X155246000Y-104398578D02*
X155246000Y-103881422D01*
X187962000Y-83383000D02*
X189422000Y-83383000D01*
X187962000Y-86543000D02*
X190122000Y-86543000D01*
X187962000Y-86543000D02*
X187962000Y-85613000D01*
X187962000Y-83383000D02*
X187962000Y-84313000D01*
X196090000Y-83383000D02*
X197550000Y-83383000D01*
X196090000Y-86543000D02*
X198250000Y-86543000D01*
X196090000Y-86543000D02*
X196090000Y-85613000D01*
X196090000Y-83383000D02*
X196090000Y-84313000D01*
X193546000Y-75875000D02*
X192086000Y-75875000D01*
X193546000Y-72715000D02*
X191386000Y-72715000D01*
X193546000Y-72715000D02*
X193546000Y-73645000D01*
X193546000Y-75875000D02*
X193546000Y-74945000D01*
X204815221Y-70868000D02*
X205140779Y-70868000D01*
X204815221Y-69848000D02*
X205140779Y-69848000D01*
X204375936Y-64918000D02*
X205580064Y-64918000D01*
X204375936Y-63098000D02*
X205580064Y-63098000D01*
X156877936Y-72030000D02*
X158082064Y-72030000D01*
X156877936Y-70210000D02*
X158082064Y-70210000D01*
X201620000Y-101507000D02*
X201620000Y-98822000D01*
X199700000Y-101507000D02*
X201620000Y-101507000D01*
X199700000Y-98822000D02*
X199700000Y-101507000D01*
X203906000Y-101507000D02*
X203906000Y-98822000D01*
X201986000Y-101507000D02*
X203906000Y-101507000D01*
X201986000Y-98822000D02*
X201986000Y-101507000D01*
D12*
X226726000Y-83058000D02*
X227326000Y-82658000D01*
X226726000Y-83058000D02*
X226726000Y-82508000D01*
X227326000Y-83058000D02*
X227826000Y-83058000D01*
X227326000Y-83458000D02*
X226726000Y-83058000D01*
X227326000Y-82658000D02*
X227326000Y-83458000D01*
X226726000Y-83058000D02*
X226726000Y-83608000D01*
X226326000Y-83058000D02*
X226726000Y-83058000D01*
D14*
X224028000Y-81698000D02*
X224028000Y-84418000D01*
X224028000Y-84418000D02*
X228976000Y-84418000D01*
X224028000Y-81698000D02*
X228976000Y-81698000D01*
D12*
X197612000Y-120238000D02*
X197212000Y-119638000D01*
X197612000Y-120238000D02*
X197062000Y-120238000D01*
X197612000Y-119638000D02*
X197612000Y-119138000D01*
X198012000Y-119638000D02*
X197612000Y-120238000D01*
X197212000Y-119638000D02*
X198012000Y-119638000D01*
X197612000Y-120238000D02*
X198162000Y-120238000D01*
X197612000Y-120638000D02*
X197612000Y-120238000D01*
D14*
X196252000Y-122936000D02*
X198972000Y-122936000D01*
X198972000Y-122936000D02*
X198972000Y-117988000D01*
X196252000Y-122936000D02*
X196252000Y-117988000D01*
X159964000Y-101761000D02*
X159964000Y-99076000D01*
X158044000Y-101761000D02*
X159964000Y-101761000D01*
X158044000Y-99076000D02*
X158044000Y-101761000D01*
D12*
X205328000Y-67310000D02*
X204728000Y-67710000D01*
X205328000Y-67310000D02*
X205328000Y-67860000D01*
X204728000Y-67310000D02*
X204228000Y-67310000D01*
X204728000Y-66910000D02*
X205328000Y-67310000D01*
X204728000Y-67710000D02*
X204728000Y-66910000D01*
X205328000Y-67310000D02*
X205328000Y-66760000D01*
X205728000Y-67310000D02*
X205328000Y-67310000D01*
D14*
X208026000Y-68670000D02*
X208026000Y-65950000D01*
X208026000Y-65950000D02*
X203078000Y-65950000D01*
X208026000Y-68670000D02*
X203078000Y-68670000D01*
X154996000Y-98391000D02*
X154996000Y-101076000D01*
X156916000Y-98391000D02*
X154996000Y-98391000D01*
X156916000Y-101076000D02*
X156916000Y-98391000D01*
X194568578Y-107494000D02*
X194051422Y-107494000D01*
X194568578Y-108914000D02*
X194051422Y-108914000D01*
X194051422Y-106628000D02*
X194568578Y-106628000D01*
X194051422Y-105208000D02*
X194568578Y-105208000D01*
X196346578Y-93778000D02*
X195829422Y-93778000D01*
X196346578Y-95198000D02*
X195829422Y-95198000D01*
X191765422Y-95198000D02*
X192282578Y-95198000D01*
X191765422Y-93778000D02*
X192282578Y-93778000D01*
X189987422Y-108914000D02*
X190504578Y-108914000D01*
X189987422Y-107494000D02*
X190504578Y-107494000D01*
X220806000Y-95796000D02*
X220806000Y-96796000D01*
X220306000Y-96296000D02*
X221306000Y-96296000D01*
X221546000Y-102001563D02*
X222610437Y-103066000D01*
X221546000Y-95610437D02*
X222610437Y-94546000D01*
X221546000Y-95610437D02*
X221546000Y-97296000D01*
X221546000Y-102001563D02*
X221546000Y-100316000D01*
X222610437Y-103066000D02*
X230066000Y-103066000D01*
X222610437Y-94546000D02*
X230066000Y-94546000D01*
X230066000Y-94546000D02*
X230066000Y-97296000D01*
X230066000Y-103066000D02*
X230066000Y-100316000D01*
X190504578Y-105208000D02*
X189987422Y-105208000D01*
X190504578Y-106628000D02*
X189987422Y-106628000D01*
X220806000Y-86398000D02*
X220806000Y-87398000D01*
X220306000Y-86898000D02*
X221306000Y-86898000D01*
X221546000Y-92603563D02*
X222610437Y-93668000D01*
X221546000Y-86212437D02*
X222610437Y-85148000D01*
X221546000Y-86212437D02*
X221546000Y-87898000D01*
X221546000Y-92603563D02*
X221546000Y-90918000D01*
X222610437Y-93668000D02*
X230066000Y-93668000D01*
X222610437Y-85148000D02*
X230066000Y-85148000D01*
X230066000Y-85148000D02*
X230066000Y-87898000D01*
X230066000Y-93668000D02*
X230066000Y-90918000D01*
X214578000Y-80014578D02*
X214578000Y-79497422D01*
X213158000Y-80014578D02*
X213158000Y-79497422D01*
X225547422Y-133298000D02*
X226064578Y-133298000D01*
X225547422Y-131878000D02*
X226064578Y-131878000D01*
X191266578Y-135942000D02*
X190749422Y-135942000D01*
X191266578Y-137362000D02*
X190749422Y-137362000D01*
X220806000Y-123990000D02*
X220806000Y-124990000D01*
X220306000Y-124490000D02*
X221306000Y-124490000D01*
X221546000Y-130195563D02*
X222610437Y-131260000D01*
X221546000Y-123804437D02*
X222610437Y-122740000D01*
X221546000Y-123804437D02*
X221546000Y-125490000D01*
X221546000Y-130195563D02*
X221546000Y-128510000D01*
X222610437Y-131260000D02*
X230066000Y-131260000D01*
X222610437Y-122740000D02*
X230066000Y-122740000D01*
X230066000Y-122740000D02*
X230066000Y-125490000D01*
X230066000Y-131260000D02*
X230066000Y-128510000D01*
X190504578Y-80697000D02*
X189987422Y-80697000D01*
X190504578Y-82117000D02*
X189987422Y-82117000D01*
X194258000Y-123194578D02*
X194258000Y-122677422D01*
X192838000Y-123194578D02*
X192838000Y-122677422D01*
X220806000Y-61760000D02*
X220806000Y-62760000D01*
X220306000Y-62260000D02*
X221306000Y-62260000D01*
X221546000Y-67965563D02*
X222610437Y-69030000D01*
X221546000Y-61574437D02*
X222610437Y-60510000D01*
X221546000Y-61574437D02*
X221546000Y-63260000D01*
X221546000Y-67965563D02*
X221546000Y-66280000D01*
X222610437Y-69030000D02*
X230066000Y-69030000D01*
X222610437Y-60510000D02*
X230066000Y-60510000D01*
X230066000Y-60510000D02*
X230066000Y-63260000D01*
X230066000Y-69030000D02*
X230066000Y-66280000D01*
X220806000Y-114592000D02*
X220806000Y-115592000D01*
X220306000Y-115092000D02*
X221306000Y-115092000D01*
X221546000Y-120797563D02*
X222610437Y-121862000D01*
X221546000Y-114406437D02*
X222610437Y-113342000D01*
X221546000Y-114406437D02*
X221546000Y-116092000D01*
X221546000Y-120797563D02*
X221546000Y-119112000D01*
X222610437Y-121862000D02*
X230066000Y-121862000D01*
X222610437Y-113342000D02*
X230066000Y-113342000D01*
X230066000Y-113342000D02*
X230066000Y-116092000D01*
X230066000Y-121862000D02*
X230066000Y-119112000D01*
X215698000Y-75433422D02*
X215698000Y-75950578D01*
X217118000Y-75433422D02*
X217118000Y-75950578D01*
X218238000Y-75433422D02*
X218238000Y-75950578D01*
X219658000Y-75433422D02*
X219658000Y-75950578D01*
X220806000Y-105194000D02*
X220806000Y-106194000D01*
X220306000Y-105694000D02*
X221306000Y-105694000D01*
X221546000Y-111399563D02*
X222610437Y-112464000D01*
X221546000Y-105008437D02*
X222610437Y-103944000D01*
X221546000Y-105008437D02*
X221546000Y-106694000D01*
X221546000Y-111399563D02*
X221546000Y-109714000D01*
X222610437Y-112464000D02*
X230066000Y-112464000D01*
X222610437Y-103944000D02*
X230066000Y-103944000D01*
X230066000Y-103944000D02*
X230066000Y-106694000D01*
X230066000Y-112464000D02*
X230066000Y-109714000D01*
X189987422Y-111200000D02*
X190504578Y-111200000D01*
X189987422Y-109780000D02*
X190504578Y-109780000D01*
X194568578Y-109780000D02*
X194051422Y-109780000D01*
X194568578Y-111200000D02*
X194051422Y-111200000D01*
D15*
X206700380Y-114212666D02*
X206700380Y-114688857D01*
X205700380Y-114688857D01*
X205795619Y-113926952D02*
X205748000Y-113879333D01*
X205700380Y-113784095D01*
X205700380Y-113546000D01*
X205748000Y-113450761D01*
X205795619Y-113403142D01*
X205890857Y-113355523D01*
X205986095Y-113355523D01*
X206128952Y-113403142D01*
X206700380Y-113974571D01*
X206700380Y-113355523D01*
X208224380Y-61380666D02*
X208224380Y-61856857D01*
X207224380Y-61856857D01*
X207224380Y-61142571D02*
X207224380Y-60523523D01*
X207605333Y-60856857D01*
X207605333Y-60714000D01*
X207652952Y-60618761D01*
X207700571Y-60571142D01*
X207795809Y-60523523D01*
X208033904Y-60523523D01*
X208129142Y-60571142D01*
X208176761Y-60618761D01*
X208224380Y-60714000D01*
X208224380Y-60999714D01*
X208176761Y-61094952D01*
X208129142Y-61142571D01*
X206700380Y-121578666D02*
X206700380Y-122054857D01*
X205700380Y-122054857D01*
X206033714Y-120816761D02*
X206700380Y-120816761D01*
X205652761Y-121054857D02*
X206367047Y-121292952D01*
X206367047Y-120673904D01*
X206700380Y-90590666D02*
X206700380Y-91066857D01*
X205700380Y-91066857D01*
X205700380Y-89781142D02*
X205700380Y-90257333D01*
X206176571Y-90304952D01*
X206128952Y-90257333D01*
X206081333Y-90162095D01*
X206081333Y-89924000D01*
X206128952Y-89828761D01*
X206176571Y-89781142D01*
X206271809Y-89733523D01*
X206509904Y-89733523D01*
X206605142Y-89781142D01*
X206652761Y-89828761D01*
X206700380Y-89924000D01*
X206700380Y-90162095D01*
X206652761Y-90257333D01*
X206605142Y-90304952D01*
X206700380Y-102528666D02*
X206700380Y-103004857D01*
X205700380Y-103004857D01*
X205700380Y-101766761D02*
X205700380Y-101957238D01*
X205748000Y-102052476D01*
X205795619Y-102100095D01*
X205938476Y-102195333D01*
X206128952Y-102242952D01*
X206509904Y-102242952D01*
X206605142Y-102195333D01*
X206652761Y-102147714D01*
X206700380Y-102052476D01*
X206700380Y-101862000D01*
X206652761Y-101766761D01*
X206605142Y-101719142D01*
X206509904Y-101671523D01*
X206271809Y-101671523D01*
X206176571Y-101719142D01*
X206128952Y-101766761D01*
X206081333Y-101862000D01*
X206081333Y-102052476D01*
X206128952Y-102147714D01*
X206176571Y-102195333D01*
X206271809Y-102242952D01*
X185674095Y-123198000D02*
X185578857Y-123150380D01*
X185436000Y-123150380D01*
X185293142Y-123198000D01*
X185197904Y-123293238D01*
X185150285Y-123388476D01*
X185102666Y-123578952D01*
X185102666Y-123721809D01*
X185150285Y-123912285D01*
X185197904Y-124007523D01*
X185293142Y-124102761D01*
X185436000Y-124150380D01*
X185531238Y-124150380D01*
X185674095Y-124102761D01*
X185721714Y-124055142D01*
X185721714Y-123721809D01*
X185531238Y-123721809D01*
X186150285Y-124150380D02*
X186150285Y-123150380D01*
X186721714Y-124150380D01*
X186721714Y-123150380D01*
X187197904Y-124150380D02*
X187197904Y-123150380D01*
X187436000Y-123150380D01*
X187578857Y-123198000D01*
X187674095Y-123293238D01*
X187721714Y-123388476D01*
X187769333Y-123578952D01*
X187769333Y-123721809D01*
X187721714Y-123912285D01*
X187674095Y-124007523D01*
X187578857Y-124102761D01*
X187436000Y-124150380D01*
X187197904Y-124150380D01*
X204160380Y-89288857D02*
X203684190Y-89622190D01*
X204160380Y-89860285D02*
X203160380Y-89860285D01*
X203160380Y-89479333D01*
X203208000Y-89384095D01*
X203255619Y-89336476D01*
X203350857Y-89288857D01*
X203493714Y-89288857D01*
X203588952Y-89336476D01*
X203636571Y-89384095D01*
X203684190Y-89479333D01*
X203684190Y-89860285D01*
X203255619Y-88907904D02*
X203208000Y-88860285D01*
X203160380Y-88765047D01*
X203160380Y-88526952D01*
X203208000Y-88431714D01*
X203255619Y-88384095D01*
X203350857Y-88336476D01*
X203446095Y-88336476D01*
X203588952Y-88384095D01*
X204160380Y-88955523D01*
X204160380Y-88336476D01*
X203588952Y-87765047D02*
X203541333Y-87860285D01*
X203493714Y-87907904D01*
X203398476Y-87955523D01*
X203350857Y-87955523D01*
X203255619Y-87907904D01*
X203208000Y-87860285D01*
X203160380Y-87765047D01*
X203160380Y-87574571D01*
X203208000Y-87479333D01*
X203255619Y-87431714D01*
X203350857Y-87384095D01*
X203398476Y-87384095D01*
X203493714Y-87431714D01*
X203541333Y-87479333D01*
X203588952Y-87574571D01*
X203588952Y-87765047D01*
X203636571Y-87860285D01*
X203684190Y-87907904D01*
X203779428Y-87955523D01*
X203969904Y-87955523D01*
X204065142Y-87907904D01*
X204112761Y-87860285D01*
X204160380Y-87765047D01*
X204160380Y-87574571D01*
X204112761Y-87479333D01*
X204065142Y-87431714D01*
X203969904Y-87384095D01*
X203779428Y-87384095D01*
X203684190Y-87431714D01*
X203636571Y-87479333D01*
X203588952Y-87574571D01*
X204589142Y-133802380D02*
X204255809Y-133326190D01*
X204017714Y-133802380D02*
X204017714Y-132802380D01*
X204398666Y-132802380D01*
X204493904Y-132850000D01*
X204541523Y-132897619D01*
X204589142Y-132992857D01*
X204589142Y-133135714D01*
X204541523Y-133230952D01*
X204493904Y-133278571D01*
X204398666Y-133326190D01*
X204017714Y-133326190D01*
X204970095Y-132897619D02*
X205017714Y-132850000D01*
X205112952Y-132802380D01*
X205351047Y-132802380D01*
X205446285Y-132850000D01*
X205493904Y-132897619D01*
X205541523Y-132992857D01*
X205541523Y-133088095D01*
X205493904Y-133230952D01*
X204922476Y-133802380D01*
X205541523Y-133802380D01*
X205874857Y-132802380D02*
X206541523Y-132802380D01*
X206112952Y-133802380D01*
X204589142Y-131516380D02*
X204255809Y-131040190D01*
X204017714Y-131516380D02*
X204017714Y-130516380D01*
X204398666Y-130516380D01*
X204493904Y-130564000D01*
X204541523Y-130611619D01*
X204589142Y-130706857D01*
X204589142Y-130849714D01*
X204541523Y-130944952D01*
X204493904Y-130992571D01*
X204398666Y-131040190D01*
X204017714Y-131040190D01*
X204970095Y-130611619D02*
X205017714Y-130564000D01*
X205112952Y-130516380D01*
X205351047Y-130516380D01*
X205446285Y-130564000D01*
X205493904Y-130611619D01*
X205541523Y-130706857D01*
X205541523Y-130802095D01*
X205493904Y-130944952D01*
X204922476Y-131516380D01*
X205541523Y-131516380D01*
X206398666Y-130516380D02*
X206208190Y-130516380D01*
X206112952Y-130564000D01*
X206065333Y-130611619D01*
X205970095Y-130754476D01*
X205922476Y-130944952D01*
X205922476Y-131325904D01*
X205970095Y-131421142D01*
X206017714Y-131468761D01*
X206112952Y-131516380D01*
X206303428Y-131516380D01*
X206398666Y-131468761D01*
X206446285Y-131421142D01*
X206493904Y-131325904D01*
X206493904Y-131087809D01*
X206446285Y-130992571D01*
X206398666Y-130944952D01*
X206303428Y-130897333D01*
X206112952Y-130897333D01*
X206017714Y-130944952D01*
X205970095Y-130992571D01*
X205922476Y-131087809D01*
X204821404Y-80780000D02*
X204726166Y-80732380D01*
X204583309Y-80732380D01*
X204440452Y-80780000D01*
X204345214Y-80875238D01*
X204297595Y-80970476D01*
X204249976Y-81160952D01*
X204249976Y-81303809D01*
X204297595Y-81494285D01*
X204345214Y-81589523D01*
X204440452Y-81684761D01*
X204583309Y-81732380D01*
X204678547Y-81732380D01*
X204821404Y-81684761D01*
X204869023Y-81637142D01*
X204869023Y-81303809D01*
X204678547Y-81303809D01*
X205297595Y-81732380D02*
X205297595Y-80732380D01*
X205869023Y-81732380D01*
X205869023Y-80732380D01*
X206345214Y-81732380D02*
X206345214Y-80732380D01*
X206583309Y-80732380D01*
X206726166Y-80780000D01*
X206821404Y-80875238D01*
X206869023Y-80970476D01*
X206916642Y-81160952D01*
X206916642Y-81303809D01*
X206869023Y-81494285D01*
X206821404Y-81589523D01*
X206726166Y-81684761D01*
X206583309Y-81732380D01*
X206345214Y-81732380D01*
X221234095Y-133231000D02*
X221138857Y-133183380D01*
X220996000Y-133183380D01*
X220853142Y-133231000D01*
X220757904Y-133326238D01*
X220710285Y-133421476D01*
X220662666Y-133611952D01*
X220662666Y-133754809D01*
X220710285Y-133945285D01*
X220757904Y-134040523D01*
X220853142Y-134135761D01*
X220996000Y-134183380D01*
X221091238Y-134183380D01*
X221234095Y-134135761D01*
X221281714Y-134088142D01*
X221281714Y-133754809D01*
X221091238Y-133754809D01*
X221710285Y-134183380D02*
X221710285Y-133183380D01*
X222281714Y-134183380D01*
X222281714Y-133183380D01*
X222757904Y-134183380D02*
X222757904Y-133183380D01*
X222996000Y-133183380D01*
X223138857Y-133231000D01*
X223234095Y-133326238D01*
X223281714Y-133421476D01*
X223329333Y-133611952D01*
X223329333Y-133754809D01*
X223281714Y-133945285D01*
X223234095Y-134040523D01*
X223138857Y-134135761D01*
X222996000Y-134183380D01*
X222757904Y-134183380D01*
X212661523Y-133183380D02*
X212185333Y-133183380D01*
X212137714Y-133659571D01*
X212185333Y-133611952D01*
X212280571Y-133564333D01*
X212518666Y-133564333D01*
X212613904Y-133611952D01*
X212661523Y-133659571D01*
X212709142Y-133754809D01*
X212709142Y-133992904D01*
X212661523Y-134088142D01*
X212613904Y-134135761D01*
X212518666Y-134183380D01*
X212280571Y-134183380D01*
X212185333Y-134135761D01*
X212137714Y-134088142D01*
X212994857Y-133183380D02*
X213328190Y-134183380D01*
X213661523Y-133183380D01*
X208780190Y-134135761D02*
X208923047Y-134183380D01*
X209161142Y-134183380D01*
X209256380Y-134135761D01*
X209304000Y-134088142D01*
X209351619Y-133992904D01*
X209351619Y-133897666D01*
X209304000Y-133802428D01*
X209256380Y-133754809D01*
X209161142Y-133707190D01*
X208970666Y-133659571D01*
X208875428Y-133611952D01*
X208827809Y-133564333D01*
X208780190Y-133469095D01*
X208780190Y-133373857D01*
X208827809Y-133278619D01*
X208875428Y-133231000D01*
X208970666Y-133183380D01*
X209208761Y-133183380D01*
X209351619Y-133231000D01*
X209780190Y-134183380D02*
X209780190Y-133183380D01*
X210780190Y-133231000D02*
X210684952Y-133183380D01*
X210542095Y-133183380D01*
X210399238Y-133231000D01*
X210304000Y-133326238D01*
X210256380Y-133421476D01*
X210208761Y-133611952D01*
X210208761Y-133754809D01*
X210256380Y-133945285D01*
X210304000Y-134040523D01*
X210399238Y-134135761D01*
X210542095Y-134183380D01*
X210637333Y-134183380D01*
X210780190Y-134135761D01*
X210827809Y-134088142D01*
X210827809Y-133754809D01*
X210637333Y-133754809D01*
X214709523Y-133278619D02*
X214757142Y-133231000D01*
X214852380Y-133183380D01*
X215090476Y-133183380D01*
X215185714Y-133231000D01*
X215233333Y-133278619D01*
X215280952Y-133373857D01*
X215280952Y-133469095D01*
X215233333Y-133611952D01*
X214661904Y-134183380D01*
X215280952Y-134183380D01*
X216138095Y-133516714D02*
X216138095Y-134183380D01*
X215900000Y-133135761D02*
X215661904Y-133850047D01*
X216280952Y-133850047D01*
X216519047Y-133183380D02*
X216852380Y-134183380D01*
X217185714Y-133183380D01*
X204821404Y-79192380D02*
X204249976Y-79192380D01*
X204535690Y-79192380D02*
X204535690Y-78192380D01*
X204440452Y-78335238D01*
X204345214Y-78430476D01*
X204249976Y-78478095D01*
X205249976Y-79097142D02*
X205297595Y-79144761D01*
X205249976Y-79192380D01*
X205202357Y-79144761D01*
X205249976Y-79097142D01*
X205249976Y-79192380D01*
X205678547Y-78287619D02*
X205726166Y-78240000D01*
X205821404Y-78192380D01*
X206059500Y-78192380D01*
X206154738Y-78240000D01*
X206202357Y-78287619D01*
X206249976Y-78382857D01*
X206249976Y-78478095D01*
X206202357Y-78620952D01*
X205630928Y-79192380D01*
X206249976Y-79192380D01*
X206535690Y-78192380D02*
X206869023Y-79192380D01*
X207202357Y-78192380D01*
X185245523Y-117054380D02*
X185340761Y-117054380D01*
X185436000Y-117102000D01*
X185483619Y-117149619D01*
X185531238Y-117244857D01*
X185578857Y-117435333D01*
X185578857Y-117673428D01*
X185531238Y-117863904D01*
X185483619Y-117959142D01*
X185436000Y-118006761D01*
X185340761Y-118054380D01*
X185245523Y-118054380D01*
X185150285Y-118006761D01*
X185102666Y-117959142D01*
X185055047Y-117863904D01*
X185007428Y-117673428D01*
X185007428Y-117435333D01*
X185055047Y-117244857D01*
X185102666Y-117149619D01*
X185150285Y-117102000D01*
X185245523Y-117054380D01*
X186007428Y-117959142D02*
X186055047Y-118006761D01*
X186007428Y-118054380D01*
X185959809Y-118006761D01*
X186007428Y-117959142D01*
X186007428Y-118054380D01*
X186912190Y-117054380D02*
X186721714Y-117054380D01*
X186626476Y-117102000D01*
X186578857Y-117149619D01*
X186483619Y-117292476D01*
X186436000Y-117482952D01*
X186436000Y-117863904D01*
X186483619Y-117959142D01*
X186531238Y-118006761D01*
X186626476Y-118054380D01*
X186816952Y-118054380D01*
X186912190Y-118006761D01*
X186959809Y-117959142D01*
X187007428Y-117863904D01*
X187007428Y-117625809D01*
X186959809Y-117530571D01*
X186912190Y-117482952D01*
X186816952Y-117435333D01*
X186626476Y-117435333D01*
X186531238Y-117482952D01*
X186483619Y-117530571D01*
X186436000Y-117625809D01*
X187293142Y-117054380D02*
X187626476Y-118054380D01*
X187959809Y-117054380D01*
X217852761Y-133183380D02*
X218186095Y-134183380D01*
X218519428Y-133183380D01*
X218852761Y-134183380D02*
X218852761Y-133183380D01*
X219328952Y-134183380D02*
X219328952Y-133183380D01*
X219900380Y-134183380D01*
X219900380Y-133183380D01*
X204630928Y-76128571D02*
X204773785Y-76176190D01*
X204821404Y-76223809D01*
X204869023Y-76319047D01*
X204869023Y-76461904D01*
X204821404Y-76557142D01*
X204773785Y-76604761D01*
X204678547Y-76652380D01*
X204297595Y-76652380D01*
X204297595Y-75652380D01*
X204630928Y-75652380D01*
X204726166Y-75700000D01*
X204773785Y-75747619D01*
X204821404Y-75842857D01*
X204821404Y-75938095D01*
X204773785Y-76033333D01*
X204726166Y-76080952D01*
X204630928Y-76128571D01*
X204297595Y-76128571D01*
X205249976Y-76366666D02*
X205726166Y-76366666D01*
X205154738Y-76652380D02*
X205488071Y-75652380D01*
X205821404Y-76652380D01*
X206011880Y-75652380D02*
X206583309Y-75652380D01*
X206297595Y-76652380D02*
X206297595Y-75652380D01*
X206773785Y-75652380D02*
X207345214Y-75652380D01*
X207059500Y-76652380D02*
X207059500Y-75652380D01*
X207678547Y-76271428D02*
X208440452Y-76271428D01*
X204630928Y-73588571D02*
X204773785Y-73636190D01*
X204821404Y-73683809D01*
X204869023Y-73779047D01*
X204869023Y-73921904D01*
X204821404Y-74017142D01*
X204773785Y-74064761D01*
X204678547Y-74112380D01*
X204297595Y-74112380D01*
X204297595Y-73112380D01*
X204630928Y-73112380D01*
X204726166Y-73160000D01*
X204773785Y-73207619D01*
X204821404Y-73302857D01*
X204821404Y-73398095D01*
X204773785Y-73493333D01*
X204726166Y-73540952D01*
X204630928Y-73588571D01*
X204297595Y-73588571D01*
X205249976Y-73826666D02*
X205726166Y-73826666D01*
X205154738Y-74112380D02*
X205488071Y-73112380D01*
X205821404Y-74112380D01*
X206011880Y-73112380D02*
X206583309Y-73112380D01*
X206297595Y-74112380D02*
X206297595Y-73112380D01*
X206773785Y-73112380D02*
X207345214Y-73112380D01*
X207059500Y-74112380D02*
X207059500Y-73112380D01*
X207678547Y-73731428D02*
X208440452Y-73731428D01*
X208059500Y-74112380D02*
X208059500Y-73350476D01*
X153844666Y-136326571D02*
X153511333Y-136326571D01*
X153511333Y-136850380D02*
X153511333Y-135850380D01*
X153987523Y-135850380D01*
X154273238Y-135850380D02*
X154939904Y-135850380D01*
X154511333Y-136850380D01*
X153844666Y-133278571D02*
X153511333Y-133278571D01*
X153511333Y-133802380D02*
X153511333Y-132802380D01*
X153987523Y-132802380D01*
X154797047Y-132802380D02*
X154606571Y-132802380D01*
X154511333Y-132850000D01*
X154463714Y-132897619D01*
X154368476Y-133040476D01*
X154320857Y-133230952D01*
X154320857Y-133611904D01*
X154368476Y-133707142D01*
X154416095Y-133754761D01*
X154511333Y-133802380D01*
X154701809Y-133802380D01*
X154797047Y-133754761D01*
X154844666Y-133707142D01*
X154892285Y-133611904D01*
X154892285Y-133373809D01*
X154844666Y-133278571D01*
X154797047Y-133230952D01*
X154701809Y-133183333D01*
X154511333Y-133183333D01*
X154416095Y-133230952D01*
X154368476Y-133278571D01*
X154320857Y-133373809D01*
X153844666Y-130484571D02*
X153511333Y-130484571D01*
X153511333Y-131008380D02*
X153511333Y-130008380D01*
X153987523Y-130008380D01*
X154844666Y-130008380D02*
X154368476Y-130008380D01*
X154320857Y-130484571D01*
X154368476Y-130436952D01*
X154463714Y-130389333D01*
X154701809Y-130389333D01*
X154797047Y-130436952D01*
X154844666Y-130484571D01*
X154892285Y-130579809D01*
X154892285Y-130817904D01*
X154844666Y-130913142D01*
X154797047Y-130960761D01*
X154701809Y-131008380D01*
X154463714Y-131008380D01*
X154368476Y-130960761D01*
X154320857Y-130913142D01*
X153844666Y-127436571D02*
X153511333Y-127436571D01*
X153511333Y-127960380D02*
X153511333Y-126960380D01*
X153987523Y-126960380D01*
X154797047Y-127293714D02*
X154797047Y-127960380D01*
X154558952Y-126912761D02*
X154320857Y-127627047D01*
X154939904Y-127627047D01*
X153844666Y-124388571D02*
X153511333Y-124388571D01*
X153511333Y-124912380D02*
X153511333Y-123912380D01*
X153987523Y-123912380D01*
X154273238Y-123912380D02*
X154892285Y-123912380D01*
X154558952Y-124293333D01*
X154701809Y-124293333D01*
X154797047Y-124340952D01*
X154844666Y-124388571D01*
X154892285Y-124483809D01*
X154892285Y-124721904D01*
X154844666Y-124817142D01*
X154797047Y-124864761D01*
X154701809Y-124912380D01*
X154416095Y-124912380D01*
X154320857Y-124864761D01*
X154273238Y-124817142D01*
X193667142Y-128468380D02*
X193333809Y-127992190D01*
X193095714Y-128468380D02*
X193095714Y-127468380D01*
X193476666Y-127468380D01*
X193571904Y-127516000D01*
X193619523Y-127563619D01*
X193667142Y-127658857D01*
X193667142Y-127801714D01*
X193619523Y-127896952D01*
X193571904Y-127944571D01*
X193476666Y-127992190D01*
X193095714Y-127992190D01*
X194048095Y-127563619D02*
X194095714Y-127516000D01*
X194190952Y-127468380D01*
X194429047Y-127468380D01*
X194524285Y-127516000D01*
X194571904Y-127563619D01*
X194619523Y-127658857D01*
X194619523Y-127754095D01*
X194571904Y-127896952D01*
X194000476Y-128468380D01*
X194619523Y-128468380D01*
X195524285Y-127468380D02*
X195048095Y-127468380D01*
X195000476Y-127944571D01*
X195048095Y-127896952D01*
X195143333Y-127849333D01*
X195381428Y-127849333D01*
X195476666Y-127896952D01*
X195524285Y-127944571D01*
X195571904Y-128039809D01*
X195571904Y-128277904D01*
X195524285Y-128373142D01*
X195476666Y-128420761D01*
X195381428Y-128468380D01*
X195143333Y-128468380D01*
X195048095Y-128420761D01*
X195000476Y-128373142D01*
X189857142Y-128468380D02*
X189523809Y-127992190D01*
X189285714Y-128468380D02*
X189285714Y-127468380D01*
X189666666Y-127468380D01*
X189761904Y-127516000D01*
X189809523Y-127563619D01*
X189857142Y-127658857D01*
X189857142Y-127801714D01*
X189809523Y-127896952D01*
X189761904Y-127944571D01*
X189666666Y-127992190D01*
X189285714Y-127992190D01*
X190238095Y-127563619D02*
X190285714Y-127516000D01*
X190380952Y-127468380D01*
X190619047Y-127468380D01*
X190714285Y-127516000D01*
X190761904Y-127563619D01*
X190809523Y-127658857D01*
X190809523Y-127754095D01*
X190761904Y-127896952D01*
X190190476Y-128468380D01*
X190809523Y-128468380D01*
X191666666Y-127801714D02*
X191666666Y-128468380D01*
X191428571Y-127420761D02*
X191190476Y-128135047D01*
X191809523Y-128135047D01*
X204589142Y-129230380D02*
X204255809Y-128754190D01*
X204017714Y-129230380D02*
X204017714Y-128230380D01*
X204398666Y-128230380D01*
X204493904Y-128278000D01*
X204541523Y-128325619D01*
X204589142Y-128420857D01*
X204589142Y-128563714D01*
X204541523Y-128658952D01*
X204493904Y-128706571D01*
X204398666Y-128754190D01*
X204017714Y-128754190D01*
X204970095Y-128325619D02*
X205017714Y-128278000D01*
X205112952Y-128230380D01*
X205351047Y-128230380D01*
X205446285Y-128278000D01*
X205493904Y-128325619D01*
X205541523Y-128420857D01*
X205541523Y-128516095D01*
X205493904Y-128658952D01*
X204922476Y-129230380D01*
X205541523Y-129230380D01*
X205874857Y-128230380D02*
X206493904Y-128230380D01*
X206160571Y-128611333D01*
X206303428Y-128611333D01*
X206398666Y-128658952D01*
X206446285Y-128706571D01*
X206493904Y-128801809D01*
X206493904Y-129039904D01*
X206446285Y-129135142D01*
X206398666Y-129182761D01*
X206303428Y-129230380D01*
X206017714Y-129230380D01*
X205922476Y-129182761D01*
X205874857Y-129135142D01*
X204589142Y-126690380D02*
X204255809Y-126214190D01*
X204017714Y-126690380D02*
X204017714Y-125690380D01*
X204398666Y-125690380D01*
X204493904Y-125738000D01*
X204541523Y-125785619D01*
X204589142Y-125880857D01*
X204589142Y-126023714D01*
X204541523Y-126118952D01*
X204493904Y-126166571D01*
X204398666Y-126214190D01*
X204017714Y-126214190D01*
X204970095Y-125785619D02*
X205017714Y-125738000D01*
X205112952Y-125690380D01*
X205351047Y-125690380D01*
X205446285Y-125738000D01*
X205493904Y-125785619D01*
X205541523Y-125880857D01*
X205541523Y-125976095D01*
X205493904Y-126118952D01*
X204922476Y-126690380D01*
X205541523Y-126690380D01*
X205922476Y-125785619D02*
X205970095Y-125738000D01*
X206065333Y-125690380D01*
X206303428Y-125690380D01*
X206398666Y-125738000D01*
X206446285Y-125785619D01*
X206493904Y-125880857D01*
X206493904Y-125976095D01*
X206446285Y-126118952D01*
X205874857Y-126690380D01*
X206493904Y-126690380D01*
X186594761Y-127801619D02*
X186499523Y-127754000D01*
X186404285Y-127658761D01*
X186261428Y-127515904D01*
X186166190Y-127468285D01*
X186070952Y-127468285D01*
X186118571Y-127706380D02*
X186023333Y-127658761D01*
X185928095Y-127563523D01*
X185880476Y-127373047D01*
X185880476Y-127039714D01*
X185928095Y-126849238D01*
X186023333Y-126754000D01*
X186118571Y-126706380D01*
X186309047Y-126706380D01*
X186404285Y-126754000D01*
X186499523Y-126849238D01*
X186547142Y-127039714D01*
X186547142Y-127373047D01*
X186499523Y-127563523D01*
X186404285Y-127658761D01*
X186309047Y-127706380D01*
X186118571Y-127706380D01*
X187451904Y-126706380D02*
X186975714Y-126706380D01*
X186928095Y-127182571D01*
X186975714Y-127134952D01*
X187070952Y-127087333D01*
X187309047Y-127087333D01*
X187404285Y-127134952D01*
X187451904Y-127182571D01*
X187499523Y-127277809D01*
X187499523Y-127515904D01*
X187451904Y-127611142D01*
X187404285Y-127658761D01*
X187309047Y-127706380D01*
X187070952Y-127706380D01*
X186975714Y-127658761D01*
X186928095Y-127611142D01*
X198024761Y-127801619D02*
X197929523Y-127754000D01*
X197834285Y-127658761D01*
X197691428Y-127515904D01*
X197596190Y-127468285D01*
X197500952Y-127468285D01*
X197548571Y-127706380D02*
X197453333Y-127658761D01*
X197358095Y-127563523D01*
X197310476Y-127373047D01*
X197310476Y-127039714D01*
X197358095Y-126849238D01*
X197453333Y-126754000D01*
X197548571Y-126706380D01*
X197739047Y-126706380D01*
X197834285Y-126754000D01*
X197929523Y-126849238D01*
X197977142Y-127039714D01*
X197977142Y-127373047D01*
X197929523Y-127563523D01*
X197834285Y-127658761D01*
X197739047Y-127706380D01*
X197548571Y-127706380D01*
X198834285Y-127039714D02*
X198834285Y-127706380D01*
X198596190Y-126658761D02*
X198358095Y-127373047D01*
X198977142Y-127373047D01*
X173934380Y-113076476D02*
X173934380Y-113552666D01*
X172934380Y-113552666D01*
X173934380Y-112743142D02*
X173267714Y-112743142D01*
X172934380Y-112743142D02*
X172982000Y-112790761D01*
X173029619Y-112743142D01*
X172982000Y-112695523D01*
X172934380Y-112743142D01*
X173029619Y-112743142D01*
X173553428Y-112266952D02*
X173553428Y-111505047D01*
X173934380Y-111028857D02*
X173267714Y-111028857D01*
X172934380Y-111028857D02*
X172982000Y-111076476D01*
X173029619Y-111028857D01*
X172982000Y-110981238D01*
X172934380Y-111028857D01*
X173029619Y-111028857D01*
X173934380Y-110409809D02*
X173886761Y-110505047D01*
X173839142Y-110552666D01*
X173743904Y-110600285D01*
X173458190Y-110600285D01*
X173362952Y-110552666D01*
X173315333Y-110505047D01*
X173267714Y-110409809D01*
X173267714Y-110266952D01*
X173315333Y-110171714D01*
X173362952Y-110124095D01*
X173458190Y-110076476D01*
X173743904Y-110076476D01*
X173839142Y-110124095D01*
X173886761Y-110171714D01*
X173934380Y-110266952D01*
X173934380Y-110409809D01*
X173267714Y-109647904D02*
X173934380Y-109647904D01*
X173362952Y-109647904D02*
X173315333Y-109600285D01*
X173267714Y-109505047D01*
X173267714Y-109362190D01*
X173315333Y-109266952D01*
X173410571Y-109219333D01*
X173934380Y-109219333D01*
X173934380Y-107457428D02*
X173934380Y-108028857D01*
X173934380Y-107743142D02*
X172934380Y-107743142D01*
X173077238Y-107838380D01*
X173172476Y-107933619D01*
X173220095Y-108028857D01*
X173362952Y-106886000D02*
X173315333Y-106981238D01*
X173267714Y-107028857D01*
X173172476Y-107076476D01*
X173124857Y-107076476D01*
X173029619Y-107028857D01*
X172982000Y-106981238D01*
X172934380Y-106886000D01*
X172934380Y-106695523D01*
X172982000Y-106600285D01*
X173029619Y-106552666D01*
X173124857Y-106505047D01*
X173172476Y-106505047D01*
X173267714Y-106552666D01*
X173315333Y-106600285D01*
X173362952Y-106695523D01*
X173362952Y-106886000D01*
X173410571Y-106981238D01*
X173458190Y-107028857D01*
X173553428Y-107076476D01*
X173743904Y-107076476D01*
X173839142Y-107028857D01*
X173886761Y-106981238D01*
X173934380Y-106886000D01*
X173934380Y-106695523D01*
X173886761Y-106600285D01*
X173839142Y-106552666D01*
X173743904Y-106505047D01*
X173553428Y-106505047D01*
X173458190Y-106552666D01*
X173410571Y-106600285D01*
X173362952Y-106695523D01*
X172934380Y-105647904D02*
X172934380Y-105838380D01*
X172982000Y-105933619D01*
X173029619Y-105981238D01*
X173172476Y-106076476D01*
X173362952Y-106124095D01*
X173743904Y-106124095D01*
X173839142Y-106076476D01*
X173886761Y-106028857D01*
X173934380Y-105933619D01*
X173934380Y-105743142D01*
X173886761Y-105647904D01*
X173839142Y-105600285D01*
X173743904Y-105552666D01*
X173505809Y-105552666D01*
X173410571Y-105600285D01*
X173362952Y-105647904D01*
X173315333Y-105743142D01*
X173315333Y-105933619D01*
X173362952Y-106028857D01*
X173410571Y-106076476D01*
X173505809Y-106124095D01*
X173362952Y-104981238D02*
X173315333Y-105076476D01*
X173267714Y-105124095D01*
X173172476Y-105171714D01*
X173124857Y-105171714D01*
X173029619Y-105124095D01*
X172982000Y-105076476D01*
X172934380Y-104981238D01*
X172934380Y-104790761D01*
X172982000Y-104695523D01*
X173029619Y-104647904D01*
X173124857Y-104600285D01*
X173172476Y-104600285D01*
X173267714Y-104647904D01*
X173315333Y-104695523D01*
X173362952Y-104790761D01*
X173362952Y-104981238D01*
X173410571Y-105076476D01*
X173458190Y-105124095D01*
X173553428Y-105171714D01*
X173743904Y-105171714D01*
X173839142Y-105124095D01*
X173886761Y-105076476D01*
X173934380Y-104981238D01*
X173934380Y-104790761D01*
X173886761Y-104695523D01*
X173839142Y-104647904D01*
X173743904Y-104600285D01*
X173553428Y-104600285D01*
X173458190Y-104647904D01*
X173410571Y-104695523D01*
X173362952Y-104790761D01*
X172934380Y-103981238D02*
X172934380Y-103886000D01*
X172982000Y-103790761D01*
X173029619Y-103743142D01*
X173124857Y-103695523D01*
X173315333Y-103647904D01*
X173553428Y-103647904D01*
X173743904Y-103695523D01*
X173839142Y-103743142D01*
X173886761Y-103790761D01*
X173934380Y-103886000D01*
X173934380Y-103981238D01*
X173886761Y-104076476D01*
X173839142Y-104124095D01*
X173743904Y-104171714D01*
X173553428Y-104219333D01*
X173315333Y-104219333D01*
X173124857Y-104171714D01*
X173029619Y-104124095D01*
X172982000Y-104076476D01*
X172934380Y-103981238D01*
X173934380Y-102457428D02*
X172934380Y-102457428D01*
X173315333Y-102457428D02*
X173267714Y-102362190D01*
X173267714Y-102171714D01*
X173315333Y-102076476D01*
X173362952Y-102028857D01*
X173458190Y-101981238D01*
X173743904Y-101981238D01*
X173839142Y-102028857D01*
X173886761Y-102076476D01*
X173934380Y-102171714D01*
X173934380Y-102362190D01*
X173886761Y-102457428D01*
X173934380Y-101124095D02*
X173410571Y-101124095D01*
X173315333Y-101171714D01*
X173267714Y-101266952D01*
X173267714Y-101457428D01*
X173315333Y-101552666D01*
X173886761Y-101124095D02*
X173934380Y-101219333D01*
X173934380Y-101457428D01*
X173886761Y-101552666D01*
X173791523Y-101600285D01*
X173696285Y-101600285D01*
X173601047Y-101552666D01*
X173553428Y-101457428D01*
X173553428Y-101219333D01*
X173505809Y-101124095D01*
X173267714Y-100790761D02*
X173267714Y-100409809D01*
X172934380Y-100647904D02*
X173791523Y-100647904D01*
X173886761Y-100600285D01*
X173934380Y-100505047D01*
X173934380Y-100409809D01*
X173267714Y-100219333D02*
X173267714Y-99838380D01*
X172934380Y-100076476D02*
X173791523Y-100076476D01*
X173886761Y-100028857D01*
X173934380Y-99933619D01*
X173934380Y-99838380D01*
X173886761Y-99124095D02*
X173934380Y-99219333D01*
X173934380Y-99409809D01*
X173886761Y-99505047D01*
X173791523Y-99552666D01*
X173410571Y-99552666D01*
X173315333Y-99505047D01*
X173267714Y-99409809D01*
X173267714Y-99219333D01*
X173315333Y-99124095D01*
X173410571Y-99076476D01*
X173505809Y-99076476D01*
X173601047Y-99552666D01*
X173934380Y-98647904D02*
X173267714Y-98647904D01*
X173458190Y-98647904D02*
X173362952Y-98600285D01*
X173315333Y-98552666D01*
X173267714Y-98457428D01*
X173267714Y-98362190D01*
X173267714Y-98124095D02*
X173934380Y-97886000D01*
X173267714Y-97647904D02*
X173934380Y-97886000D01*
X174172476Y-97981238D01*
X174220095Y-98028857D01*
X174267714Y-98124095D01*
X173886761Y-96076476D02*
X173934380Y-96171714D01*
X173934380Y-96362190D01*
X173886761Y-96457428D01*
X173839142Y-96505047D01*
X173743904Y-96552666D01*
X173458190Y-96552666D01*
X173362952Y-96505047D01*
X173315333Y-96457428D01*
X173267714Y-96362190D01*
X173267714Y-96171714D01*
X173315333Y-96076476D01*
X173886761Y-95266952D02*
X173934380Y-95362190D01*
X173934380Y-95552666D01*
X173886761Y-95647904D01*
X173791523Y-95695523D01*
X173410571Y-95695523D01*
X173315333Y-95647904D01*
X173267714Y-95552666D01*
X173267714Y-95362190D01*
X173315333Y-95266952D01*
X173410571Y-95219333D01*
X173505809Y-95219333D01*
X173601047Y-95695523D01*
X173934380Y-94647904D02*
X173886761Y-94743142D01*
X173791523Y-94790761D01*
X172934380Y-94790761D01*
X173934380Y-94124095D02*
X173886761Y-94219333D01*
X173791523Y-94266952D01*
X172934380Y-94266952D01*
X187412380Y-104139904D02*
X188221904Y-104139904D01*
X188317142Y-104092285D01*
X188364761Y-104044666D01*
X188412380Y-103949428D01*
X188412380Y-103758952D01*
X188364761Y-103663714D01*
X188317142Y-103616095D01*
X188221904Y-103568476D01*
X187412380Y-103568476D01*
X187745714Y-102663714D02*
X188412380Y-102663714D01*
X187364761Y-102901809D02*
X188079047Y-103139904D01*
X188079047Y-102520857D01*
X188936380Y-104290476D02*
X188936380Y-103719047D01*
X189936380Y-104004761D02*
X188936380Y-104004761D01*
X189936380Y-103385714D02*
X188936380Y-103385714D01*
X188936380Y-103004761D01*
X188984000Y-102909523D01*
X189031619Y-102861904D01*
X189126857Y-102814285D01*
X189269714Y-102814285D01*
X189364952Y-102861904D01*
X189412571Y-102909523D01*
X189460190Y-103004761D01*
X189460190Y-103385714D01*
X189269714Y-101957142D02*
X189936380Y-101957142D01*
X188888761Y-102195238D02*
X189603047Y-102433333D01*
X189603047Y-101814285D01*
X188936380Y-101242857D02*
X188936380Y-101147619D01*
X188984000Y-101052380D01*
X189031619Y-101004761D01*
X189126857Y-100957142D01*
X189317333Y-100909523D01*
X189555428Y-100909523D01*
X189745904Y-100957142D01*
X189841142Y-101004761D01*
X189888761Y-101052380D01*
X189936380Y-101147619D01*
X189936380Y-101242857D01*
X189888761Y-101338095D01*
X189841142Y-101385714D01*
X189745904Y-101433333D01*
X189555428Y-101480952D01*
X189317333Y-101480952D01*
X189126857Y-101433333D01*
X189031619Y-101385714D01*
X188984000Y-101338095D01*
X188936380Y-101242857D01*
X188936380Y-100004761D02*
X188936380Y-100480952D01*
X189412571Y-100528571D01*
X189364952Y-100480952D01*
X189317333Y-100385714D01*
X189317333Y-100147619D01*
X189364952Y-100052380D01*
X189412571Y-100004761D01*
X189507809Y-99957142D01*
X189745904Y-99957142D01*
X189841142Y-100004761D01*
X189888761Y-100052380D01*
X189936380Y-100147619D01*
X189936380Y-100385714D01*
X189888761Y-100480952D01*
X189841142Y-100528571D01*
X188936380Y-99100000D02*
X188936380Y-99290476D01*
X188984000Y-99385714D01*
X189031619Y-99433333D01*
X189174476Y-99528571D01*
X189364952Y-99576190D01*
X189745904Y-99576190D01*
X189841142Y-99528571D01*
X189888761Y-99480952D01*
X189936380Y-99385714D01*
X189936380Y-99195238D01*
X189888761Y-99100000D01*
X189841142Y-99052380D01*
X189745904Y-99004761D01*
X189507809Y-99004761D01*
X189412571Y-99052380D01*
X189364952Y-99100000D01*
X189317333Y-99195238D01*
X189317333Y-99385714D01*
X189364952Y-99480952D01*
X189412571Y-99528571D01*
X189507809Y-99576190D01*
X191516095Y-88860380D02*
X191516095Y-89669904D01*
X191563714Y-89765142D01*
X191611333Y-89812761D01*
X191706571Y-89860380D01*
X191897047Y-89860380D01*
X191992285Y-89812761D01*
X192039904Y-89765142D01*
X192087523Y-89669904D01*
X192087523Y-88860380D01*
X192468476Y-88860380D02*
X193087523Y-88860380D01*
X192754190Y-89241333D01*
X192897047Y-89241333D01*
X192992285Y-89288952D01*
X193039904Y-89336571D01*
X193087523Y-89431809D01*
X193087523Y-89669904D01*
X193039904Y-89765142D01*
X192992285Y-89812761D01*
X192897047Y-89860380D01*
X192611333Y-89860380D01*
X192516095Y-89812761D01*
X192468476Y-89765142D01*
X190063714Y-88336380D02*
X190063714Y-87336380D01*
X190301809Y-87336380D01*
X190444666Y-87384000D01*
X190539904Y-87479238D01*
X190587523Y-87574476D01*
X190635142Y-87764952D01*
X190635142Y-87907809D01*
X190587523Y-88098285D01*
X190539904Y-88193523D01*
X190444666Y-88288761D01*
X190301809Y-88336380D01*
X190063714Y-88336380D01*
X190968476Y-87336380D02*
X191206571Y-88336380D01*
X191397047Y-87622095D01*
X191587523Y-88336380D01*
X191825619Y-87336380D01*
X192397047Y-87336380D02*
X192492285Y-87336380D01*
X192587523Y-87384000D01*
X192635142Y-87431619D01*
X192682761Y-87526857D01*
X192730380Y-87717333D01*
X192730380Y-87955428D01*
X192682761Y-88145904D01*
X192635142Y-88241142D01*
X192587523Y-88288761D01*
X192492285Y-88336380D01*
X192397047Y-88336380D01*
X192301809Y-88288761D01*
X192254190Y-88241142D01*
X192206571Y-88145904D01*
X192158952Y-87955428D01*
X192158952Y-87717333D01*
X192206571Y-87526857D01*
X192254190Y-87431619D01*
X192301809Y-87384000D01*
X192397047Y-87336380D01*
X193682761Y-88336380D02*
X193111333Y-88336380D01*
X193397047Y-88336380D02*
X193397047Y-87336380D01*
X193301809Y-87479238D01*
X193206571Y-87574476D01*
X193111333Y-87622095D01*
X194063714Y-88050666D02*
X194539904Y-88050666D01*
X193968476Y-88336380D02*
X194301809Y-87336380D01*
X194635142Y-88336380D01*
X224790095Y-69810380D02*
X224790095Y-70619904D01*
X224837714Y-70715142D01*
X224885333Y-70762761D01*
X224980571Y-70810380D01*
X225171047Y-70810380D01*
X225266285Y-70762761D01*
X225313904Y-70715142D01*
X225361523Y-70619904D01*
X225361523Y-69810380D01*
X225790095Y-69905619D02*
X225837714Y-69858000D01*
X225932952Y-69810380D01*
X226171047Y-69810380D01*
X226266285Y-69858000D01*
X226313904Y-69905619D01*
X226361523Y-70000857D01*
X226361523Y-70096095D01*
X226313904Y-70238952D01*
X225742476Y-70810380D01*
X226361523Y-70810380D01*
X210058571Y-72080380D02*
X209582380Y-72080380D01*
X209582380Y-71080380D01*
X210391904Y-72080380D02*
X210391904Y-71080380D01*
X210725238Y-71794666D01*
X211058571Y-71080380D01*
X211058571Y-72080380D01*
X211487142Y-71175619D02*
X211534761Y-71128000D01*
X211630000Y-71080380D01*
X211868095Y-71080380D01*
X211963333Y-71128000D01*
X212010952Y-71175619D01*
X212058571Y-71270857D01*
X212058571Y-71366095D01*
X212010952Y-71508952D01*
X211439523Y-72080380D01*
X212058571Y-72080380D01*
X212963333Y-71080380D02*
X212487142Y-71080380D01*
X212439523Y-71556571D01*
X212487142Y-71508952D01*
X212582380Y-71461333D01*
X212820476Y-71461333D01*
X212915714Y-71508952D01*
X212963333Y-71556571D01*
X213010952Y-71651809D01*
X213010952Y-71889904D01*
X212963333Y-71985142D01*
X212915714Y-72032761D01*
X212820476Y-72080380D01*
X212582380Y-72080380D01*
X212487142Y-72032761D01*
X212439523Y-71985142D01*
X213487142Y-72080380D02*
X213677619Y-72080380D01*
X213772857Y-72032761D01*
X213820476Y-71985142D01*
X213915714Y-71842285D01*
X213963333Y-71651809D01*
X213963333Y-71270857D01*
X213915714Y-71175619D01*
X213868095Y-71128000D01*
X213772857Y-71080380D01*
X213582380Y-71080380D01*
X213487142Y-71128000D01*
X213439523Y-71175619D01*
X213391904Y-71270857D01*
X213391904Y-71508952D01*
X213439523Y-71604190D01*
X213487142Y-71651809D01*
X213582380Y-71699428D01*
X213772857Y-71699428D01*
X213868095Y-71651809D01*
X213915714Y-71604190D01*
X213963333Y-71508952D01*
X214820476Y-71080380D02*
X214630000Y-71080380D01*
X214534761Y-71128000D01*
X214487142Y-71175619D01*
X214391904Y-71318476D01*
X214344285Y-71508952D01*
X214344285Y-71889904D01*
X214391904Y-71985142D01*
X214439523Y-72032761D01*
X214534761Y-72080380D01*
X214725238Y-72080380D01*
X214820476Y-72032761D01*
X214868095Y-71985142D01*
X214915714Y-71889904D01*
X214915714Y-71651809D01*
X214868095Y-71556571D01*
X214820476Y-71508952D01*
X214725238Y-71461333D01*
X214534761Y-71461333D01*
X214439523Y-71508952D01*
X214391904Y-71556571D01*
X214344285Y-71651809D01*
X215296666Y-72032761D02*
X215439523Y-72080380D01*
X215677619Y-72080380D01*
X215772857Y-72032761D01*
X215820476Y-71985142D01*
X215868095Y-71889904D01*
X215868095Y-71794666D01*
X215820476Y-71699428D01*
X215772857Y-71651809D01*
X215677619Y-71604190D01*
X215487142Y-71556571D01*
X215391904Y-71508952D01*
X215344285Y-71461333D01*
X215296666Y-71366095D01*
X215296666Y-71270857D01*
X215344285Y-71175619D01*
X215391904Y-71128000D01*
X215487142Y-71080380D01*
X215725238Y-71080380D01*
X215868095Y-71128000D01*
X216296666Y-71699428D02*
X217058571Y-71699428D01*
X217487142Y-71794666D02*
X217963333Y-71794666D01*
X217391904Y-72080380D02*
X217725238Y-71080380D01*
X218058571Y-72080380D01*
X218391904Y-72080380D02*
X218391904Y-71080380D01*
X218630000Y-71080380D01*
X218772857Y-71128000D01*
X218868095Y-71223238D01*
X218915714Y-71318476D01*
X218963333Y-71508952D01*
X218963333Y-71651809D01*
X218915714Y-71842285D01*
X218868095Y-71937523D01*
X218772857Y-72032761D01*
X218630000Y-72080380D01*
X218391904Y-72080380D01*
X219677619Y-71080380D02*
X219677619Y-71794666D01*
X219630000Y-71937523D01*
X219534761Y-72032761D01*
X219391904Y-72080380D01*
X219296666Y-72080380D01*
X191770095Y-115276380D02*
X191770095Y-116085904D01*
X191817714Y-116181142D01*
X191865333Y-116228761D01*
X191960571Y-116276380D01*
X192151047Y-116276380D01*
X192246285Y-116228761D01*
X192293904Y-116181142D01*
X192341523Y-116085904D01*
X192341523Y-115276380D01*
X193341523Y-116276380D02*
X192770095Y-116276380D01*
X193055809Y-116276380D02*
X193055809Y-115276380D01*
X192960571Y-115419238D01*
X192865333Y-115514476D01*
X192770095Y-115562095D01*
X193976952Y-116276380D02*
X193976952Y-115276380D01*
X194310285Y-115990666D01*
X194643619Y-115276380D01*
X194643619Y-116276380D01*
X194976952Y-115276380D02*
X195548380Y-115276380D01*
X195262666Y-116276380D02*
X195262666Y-115276380D01*
X195786476Y-115276380D02*
X196405523Y-115276380D01*
X196072190Y-115657333D01*
X196215047Y-115657333D01*
X196310285Y-115704952D01*
X196357904Y-115752571D01*
X196405523Y-115847809D01*
X196405523Y-116085904D01*
X196357904Y-116181142D01*
X196310285Y-116228761D01*
X196215047Y-116276380D01*
X195929333Y-116276380D01*
X195834095Y-116228761D01*
X195786476Y-116181142D01*
X197262666Y-115276380D02*
X197072190Y-115276380D01*
X196976952Y-115324000D01*
X196929333Y-115371619D01*
X196834095Y-115514476D01*
X196786476Y-115704952D01*
X196786476Y-116085904D01*
X196834095Y-116181142D01*
X196881714Y-116228761D01*
X196976952Y-116276380D01*
X197167428Y-116276380D01*
X197262666Y-116228761D01*
X197310285Y-116181142D01*
X197357904Y-116085904D01*
X197357904Y-115847809D01*
X197310285Y-115752571D01*
X197262666Y-115704952D01*
X197167428Y-115657333D01*
X196976952Y-115657333D01*
X196881714Y-115704952D01*
X196834095Y-115752571D01*
X196786476Y-115847809D01*
X197976952Y-115276380D02*
X198072190Y-115276380D01*
X198167428Y-115324000D01*
X198215047Y-115371619D01*
X198262666Y-115466857D01*
X198310285Y-115657333D01*
X198310285Y-115895428D01*
X198262666Y-116085904D01*
X198215047Y-116181142D01*
X198167428Y-116228761D01*
X198072190Y-116276380D01*
X197976952Y-116276380D01*
X197881714Y-116228761D01*
X197834095Y-116181142D01*
X197786476Y-116085904D01*
X197738857Y-115895428D01*
X197738857Y-115657333D01*
X197786476Y-115466857D01*
X197834095Y-115371619D01*
X197881714Y-115324000D01*
X197976952Y-115276380D01*
X198881714Y-115704952D02*
X198786476Y-115657333D01*
X198738857Y-115609714D01*
X198691238Y-115514476D01*
X198691238Y-115466857D01*
X198738857Y-115371619D01*
X198786476Y-115324000D01*
X198881714Y-115276380D01*
X199072190Y-115276380D01*
X199167428Y-115324000D01*
X199215047Y-115371619D01*
X199262666Y-115466857D01*
X199262666Y-115514476D01*
X199215047Y-115609714D01*
X199167428Y-115657333D01*
X199072190Y-115704952D01*
X198881714Y-115704952D01*
X198786476Y-115752571D01*
X198738857Y-115800190D01*
X198691238Y-115895428D01*
X198691238Y-116085904D01*
X198738857Y-116181142D01*
X198786476Y-116228761D01*
X198881714Y-116276380D01*
X199072190Y-116276380D01*
X199167428Y-116228761D01*
X199215047Y-116181142D01*
X199262666Y-116085904D01*
X199262666Y-115895428D01*
X199215047Y-115800190D01*
X199167428Y-115752571D01*
X199072190Y-115704952D01*
X186126380Y-100972857D02*
X185650190Y-101306190D01*
X186126380Y-101544285D02*
X185126380Y-101544285D01*
X185126380Y-101163333D01*
X185174000Y-101068095D01*
X185221619Y-101020476D01*
X185316857Y-100972857D01*
X185459714Y-100972857D01*
X185554952Y-101020476D01*
X185602571Y-101068095D01*
X185650190Y-101163333D01*
X185650190Y-101544285D01*
X185221619Y-100591904D02*
X185174000Y-100544285D01*
X185126380Y-100449047D01*
X185126380Y-100210952D01*
X185174000Y-100115714D01*
X185221619Y-100068095D01*
X185316857Y-100020476D01*
X185412095Y-100020476D01*
X185554952Y-100068095D01*
X186126380Y-100639523D01*
X186126380Y-100020476D01*
X186126380Y-99068095D02*
X186126380Y-99639523D01*
X186126380Y-99353809D02*
X185126380Y-99353809D01*
X185269238Y-99449047D01*
X185364476Y-99544285D01*
X185412095Y-99639523D01*
X199763142Y-97480380D02*
X199429809Y-97004190D01*
X199191714Y-97480380D02*
X199191714Y-96480380D01*
X199572666Y-96480380D01*
X199667904Y-96528000D01*
X199715523Y-96575619D01*
X199763142Y-96670857D01*
X199763142Y-96813714D01*
X199715523Y-96908952D01*
X199667904Y-96956571D01*
X199572666Y-97004190D01*
X199191714Y-97004190D01*
X200144095Y-96575619D02*
X200191714Y-96528000D01*
X200286952Y-96480380D01*
X200525047Y-96480380D01*
X200620285Y-96528000D01*
X200667904Y-96575619D01*
X200715523Y-96670857D01*
X200715523Y-96766095D01*
X200667904Y-96908952D01*
X200096476Y-97480380D01*
X200715523Y-97480380D01*
X201334571Y-96480380D02*
X201429809Y-96480380D01*
X201525047Y-96528000D01*
X201572666Y-96575619D01*
X201620285Y-96670857D01*
X201667904Y-96861333D01*
X201667904Y-97099428D01*
X201620285Y-97289904D01*
X201572666Y-97385142D01*
X201525047Y-97432761D01*
X201429809Y-97480380D01*
X201334571Y-97480380D01*
X201239333Y-97432761D01*
X201191714Y-97385142D01*
X201144095Y-97289904D01*
X201096476Y-97099428D01*
X201096476Y-96861333D01*
X201144095Y-96670857D01*
X201191714Y-96575619D01*
X201239333Y-96528000D01*
X201334571Y-96480380D01*
X187063142Y-97480380D02*
X186729809Y-97004190D01*
X186491714Y-97480380D02*
X186491714Y-96480380D01*
X186872666Y-96480380D01*
X186967904Y-96528000D01*
X187015523Y-96575619D01*
X187063142Y-96670857D01*
X187063142Y-96813714D01*
X187015523Y-96908952D01*
X186967904Y-96956571D01*
X186872666Y-97004190D01*
X186491714Y-97004190D01*
X188015523Y-97480380D02*
X187444095Y-97480380D01*
X187729809Y-97480380D02*
X187729809Y-96480380D01*
X187634571Y-96623238D01*
X187539333Y-96718476D01*
X187444095Y-96766095D01*
X188491714Y-97480380D02*
X188682190Y-97480380D01*
X188777428Y-97432761D01*
X188825047Y-97385142D01*
X188920285Y-97242285D01*
X188967904Y-97051809D01*
X188967904Y-96670857D01*
X188920285Y-96575619D01*
X188872666Y-96528000D01*
X188777428Y-96480380D01*
X188586952Y-96480380D01*
X188491714Y-96528000D01*
X188444095Y-96575619D01*
X188396476Y-96670857D01*
X188396476Y-96908952D01*
X188444095Y-97004190D01*
X188491714Y-97051809D01*
X188586952Y-97099428D01*
X188777428Y-97099428D01*
X188872666Y-97051809D01*
X188920285Y-97004190D01*
X188967904Y-96908952D01*
X199462380Y-104020857D02*
X198986190Y-104354190D01*
X199462380Y-104592285D02*
X198462380Y-104592285D01*
X198462380Y-104211333D01*
X198510000Y-104116095D01*
X198557619Y-104068476D01*
X198652857Y-104020857D01*
X198795714Y-104020857D01*
X198890952Y-104068476D01*
X198938571Y-104116095D01*
X198986190Y-104211333D01*
X198986190Y-104592285D01*
X199462380Y-103068476D02*
X199462380Y-103639904D01*
X199462380Y-103354190D02*
X198462380Y-103354190D01*
X198605238Y-103449428D01*
X198700476Y-103544666D01*
X198748095Y-103639904D01*
X198890952Y-102497047D02*
X198843333Y-102592285D01*
X198795714Y-102639904D01*
X198700476Y-102687523D01*
X198652857Y-102687523D01*
X198557619Y-102639904D01*
X198510000Y-102592285D01*
X198462380Y-102497047D01*
X198462380Y-102306571D01*
X198510000Y-102211333D01*
X198557619Y-102163714D01*
X198652857Y-102116095D01*
X198700476Y-102116095D01*
X198795714Y-102163714D01*
X198843333Y-102211333D01*
X198890952Y-102306571D01*
X198890952Y-102497047D01*
X198938571Y-102592285D01*
X198986190Y-102639904D01*
X199081428Y-102687523D01*
X199271904Y-102687523D01*
X199367142Y-102639904D01*
X199414761Y-102592285D01*
X199462380Y-102497047D01*
X199462380Y-102306571D01*
X199414761Y-102211333D01*
X199367142Y-102163714D01*
X199271904Y-102116095D01*
X199081428Y-102116095D01*
X198986190Y-102163714D01*
X198938571Y-102211333D01*
X198890952Y-102306571D01*
X205176380Y-104020857D02*
X204700190Y-104354190D01*
X205176380Y-104592285D02*
X204176380Y-104592285D01*
X204176380Y-104211333D01*
X204224000Y-104116095D01*
X204271619Y-104068476D01*
X204366857Y-104020857D01*
X204509714Y-104020857D01*
X204604952Y-104068476D01*
X204652571Y-104116095D01*
X204700190Y-104211333D01*
X204700190Y-104592285D01*
X205176380Y-103068476D02*
X205176380Y-103639904D01*
X205176380Y-103354190D02*
X204176380Y-103354190D01*
X204319238Y-103449428D01*
X204414476Y-103544666D01*
X204462095Y-103639904D01*
X204176380Y-102735142D02*
X204176380Y-102068476D01*
X205176380Y-102497047D01*
X219400380Y-83700857D02*
X218924190Y-84034190D01*
X219400380Y-84272285D02*
X218400380Y-84272285D01*
X218400380Y-83891333D01*
X218448000Y-83796095D01*
X218495619Y-83748476D01*
X218590857Y-83700857D01*
X218733714Y-83700857D01*
X218828952Y-83748476D01*
X218876571Y-83796095D01*
X218924190Y-83891333D01*
X218924190Y-84272285D01*
X219400380Y-82748476D02*
X219400380Y-83319904D01*
X219400380Y-83034190D02*
X218400380Y-83034190D01*
X218543238Y-83129428D01*
X218638476Y-83224666D01*
X218686095Y-83319904D01*
X218400380Y-81891333D02*
X218400380Y-82081809D01*
X218448000Y-82177047D01*
X218495619Y-82224666D01*
X218638476Y-82319904D01*
X218828952Y-82367523D01*
X219209904Y-82367523D01*
X219305142Y-82319904D01*
X219352761Y-82272285D01*
X219400380Y-82177047D01*
X219400380Y-81986571D01*
X219352761Y-81891333D01*
X219305142Y-81843714D01*
X219209904Y-81796095D01*
X218971809Y-81796095D01*
X218876571Y-81843714D01*
X218828952Y-81891333D01*
X218781333Y-81986571D01*
X218781333Y-82177047D01*
X218828952Y-82272285D01*
X218876571Y-82319904D01*
X218971809Y-82367523D01*
X216860380Y-83700857D02*
X216384190Y-84034190D01*
X216860380Y-84272285D02*
X215860380Y-84272285D01*
X215860380Y-83891333D01*
X215908000Y-83796095D01*
X215955619Y-83748476D01*
X216050857Y-83700857D01*
X216193714Y-83700857D01*
X216288952Y-83748476D01*
X216336571Y-83796095D01*
X216384190Y-83891333D01*
X216384190Y-84272285D01*
X216860380Y-82748476D02*
X216860380Y-83319904D01*
X216860380Y-83034190D02*
X215860380Y-83034190D01*
X216003238Y-83129428D01*
X216098476Y-83224666D01*
X216146095Y-83319904D01*
X215860380Y-81843714D02*
X215860380Y-82319904D01*
X216336571Y-82367523D01*
X216288952Y-82319904D01*
X216241333Y-82224666D01*
X216241333Y-81986571D01*
X216288952Y-81891333D01*
X216336571Y-81843714D01*
X216431809Y-81796095D01*
X216669904Y-81796095D01*
X216765142Y-81843714D01*
X216812761Y-81891333D01*
X216860380Y-81986571D01*
X216860380Y-82224666D01*
X216812761Y-82319904D01*
X216765142Y-82367523D01*
X211780380Y-83700857D02*
X211304190Y-84034190D01*
X211780380Y-84272285D02*
X210780380Y-84272285D01*
X210780380Y-83891333D01*
X210828000Y-83796095D01*
X210875619Y-83748476D01*
X210970857Y-83700857D01*
X211113714Y-83700857D01*
X211208952Y-83748476D01*
X211256571Y-83796095D01*
X211304190Y-83891333D01*
X211304190Y-84272285D01*
X211780380Y-82748476D02*
X211780380Y-83319904D01*
X211780380Y-83034190D02*
X210780380Y-83034190D01*
X210923238Y-83129428D01*
X211018476Y-83224666D01*
X211066095Y-83319904D01*
X211113714Y-81891333D02*
X211780380Y-81891333D01*
X210732761Y-82129428D02*
X211447047Y-82367523D01*
X211447047Y-81748476D01*
X210685142Y-73858380D02*
X210351809Y-73382190D01*
X210113714Y-73858380D02*
X210113714Y-72858380D01*
X210494666Y-72858380D01*
X210589904Y-72906000D01*
X210637523Y-72953619D01*
X210685142Y-73048857D01*
X210685142Y-73191714D01*
X210637523Y-73286952D01*
X210589904Y-73334571D01*
X210494666Y-73382190D01*
X210113714Y-73382190D01*
X211637523Y-73858380D02*
X211066095Y-73858380D01*
X211351809Y-73858380D02*
X211351809Y-72858380D01*
X211256571Y-73001238D01*
X211161333Y-73096476D01*
X211066095Y-73144095D01*
X211970857Y-72858380D02*
X212589904Y-72858380D01*
X212256571Y-73239333D01*
X212399428Y-73239333D01*
X212494666Y-73286952D01*
X212542285Y-73334571D01*
X212589904Y-73429809D01*
X212589904Y-73667904D01*
X212542285Y-73763142D01*
X212494666Y-73810761D01*
X212399428Y-73858380D01*
X212113714Y-73858380D01*
X212018476Y-73810761D01*
X211970857Y-73763142D01*
X199509142Y-88463380D02*
X199175809Y-87987190D01*
X198937714Y-88463380D02*
X198937714Y-87463380D01*
X199318666Y-87463380D01*
X199413904Y-87511000D01*
X199461523Y-87558619D01*
X199509142Y-87653857D01*
X199509142Y-87796714D01*
X199461523Y-87891952D01*
X199413904Y-87939571D01*
X199318666Y-87987190D01*
X198937714Y-87987190D01*
X200461523Y-88463380D02*
X199890095Y-88463380D01*
X200175809Y-88463380D02*
X200175809Y-87463380D01*
X200080571Y-87606238D01*
X199985333Y-87701476D01*
X199890095Y-87749095D01*
X200842476Y-87558619D02*
X200890095Y-87511000D01*
X200985333Y-87463380D01*
X201223428Y-87463380D01*
X201318666Y-87511000D01*
X201366285Y-87558619D01*
X201413904Y-87653857D01*
X201413904Y-87749095D01*
X201366285Y-87891952D01*
X200794857Y-88463380D01*
X201413904Y-88463380D01*
X189349142Y-116530380D02*
X189015809Y-116054190D01*
X188777714Y-116530380D02*
X188777714Y-115530380D01*
X189158666Y-115530380D01*
X189253904Y-115578000D01*
X189301523Y-115625619D01*
X189349142Y-115720857D01*
X189349142Y-115863714D01*
X189301523Y-115958952D01*
X189253904Y-116006571D01*
X189158666Y-116054190D01*
X188777714Y-116054190D01*
X190301523Y-116530380D02*
X189730095Y-116530380D01*
X190015809Y-116530380D02*
X190015809Y-115530380D01*
X189920571Y-115673238D01*
X189825333Y-115768476D01*
X189730095Y-115816095D01*
X191253904Y-116530380D02*
X190682476Y-116530380D01*
X190968190Y-116530380D02*
X190968190Y-115530380D01*
X190872952Y-115673238D01*
X190777714Y-115768476D01*
X190682476Y-115816095D01*
X189603142Y-125928380D02*
X189269809Y-125452190D01*
X189031714Y-125928380D02*
X189031714Y-124928380D01*
X189412666Y-124928380D01*
X189507904Y-124976000D01*
X189555523Y-125023619D01*
X189603142Y-125118857D01*
X189603142Y-125261714D01*
X189555523Y-125356952D01*
X189507904Y-125404571D01*
X189412666Y-125452190D01*
X189031714Y-125452190D01*
X190555523Y-125928380D02*
X189984095Y-125928380D01*
X190269809Y-125928380D02*
X190269809Y-124928380D01*
X190174571Y-125071238D01*
X190079333Y-125166476D01*
X189984095Y-125214095D01*
X191174571Y-124928380D02*
X191269809Y-124928380D01*
X191365047Y-124976000D01*
X191412666Y-125023619D01*
X191460285Y-125118857D01*
X191507904Y-125309333D01*
X191507904Y-125547428D01*
X191460285Y-125737904D01*
X191412666Y-125833142D01*
X191365047Y-125880761D01*
X191269809Y-125928380D01*
X191174571Y-125928380D01*
X191079333Y-125880761D01*
X191031714Y-125833142D01*
X190984095Y-125737904D01*
X190936476Y-125547428D01*
X190936476Y-125309333D01*
X190984095Y-125118857D01*
X191031714Y-125023619D01*
X191079333Y-124976000D01*
X191174571Y-124928380D01*
X197953333Y-81859380D02*
X197620000Y-81383190D01*
X197381904Y-81859380D02*
X197381904Y-80859380D01*
X197762857Y-80859380D01*
X197858095Y-80907000D01*
X197905714Y-80954619D01*
X197953333Y-81049857D01*
X197953333Y-81192714D01*
X197905714Y-81287952D01*
X197858095Y-81335571D01*
X197762857Y-81383190D01*
X197381904Y-81383190D01*
X198429523Y-81859380D02*
X198620000Y-81859380D01*
X198715238Y-81811761D01*
X198762857Y-81764142D01*
X198858095Y-81621285D01*
X198905714Y-81430809D01*
X198905714Y-81049857D01*
X198858095Y-80954619D01*
X198810476Y-80907000D01*
X198715238Y-80859380D01*
X198524761Y-80859380D01*
X198429523Y-80907000D01*
X198381904Y-80954619D01*
X198334285Y-81049857D01*
X198334285Y-81287952D01*
X198381904Y-81383190D01*
X198429523Y-81430809D01*
X198524761Y-81478428D01*
X198715238Y-81478428D01*
X198810476Y-81430809D01*
X198858095Y-81383190D01*
X198905714Y-81287952D01*
X187285333Y-78811380D02*
X186952000Y-78335190D01*
X186713904Y-78811380D02*
X186713904Y-77811380D01*
X187094857Y-77811380D01*
X187190095Y-77859000D01*
X187237714Y-77906619D01*
X187285333Y-78001857D01*
X187285333Y-78144714D01*
X187237714Y-78239952D01*
X187190095Y-78287571D01*
X187094857Y-78335190D01*
X186713904Y-78335190D01*
X187856761Y-78239952D02*
X187761523Y-78192333D01*
X187713904Y-78144714D01*
X187666285Y-78049476D01*
X187666285Y-78001857D01*
X187713904Y-77906619D01*
X187761523Y-77859000D01*
X187856761Y-77811380D01*
X188047238Y-77811380D01*
X188142476Y-77859000D01*
X188190095Y-77906619D01*
X188237714Y-78001857D01*
X188237714Y-78049476D01*
X188190095Y-78144714D01*
X188142476Y-78192333D01*
X188047238Y-78239952D01*
X187856761Y-78239952D01*
X187761523Y-78287571D01*
X187713904Y-78335190D01*
X187666285Y-78430428D01*
X187666285Y-78620904D01*
X187713904Y-78716142D01*
X187761523Y-78763761D01*
X187856761Y-78811380D01*
X188047238Y-78811380D01*
X188142476Y-78763761D01*
X188190095Y-78716142D01*
X188237714Y-78620904D01*
X188237714Y-78430428D01*
X188190095Y-78335190D01*
X188142476Y-78287571D01*
X188047238Y-78239952D01*
X197953333Y-78811380D02*
X197620000Y-78335190D01*
X197381904Y-78811380D02*
X197381904Y-77811380D01*
X197762857Y-77811380D01*
X197858095Y-77859000D01*
X197905714Y-77906619D01*
X197953333Y-78001857D01*
X197953333Y-78144714D01*
X197905714Y-78239952D01*
X197858095Y-78287571D01*
X197762857Y-78335190D01*
X197381904Y-78335190D01*
X198286666Y-77811380D02*
X198953333Y-77811380D01*
X198524761Y-78811380D01*
X192619333Y-79827380D02*
X192286000Y-79351190D01*
X192047904Y-79827380D02*
X192047904Y-78827380D01*
X192428857Y-78827380D01*
X192524095Y-78875000D01*
X192571714Y-78922619D01*
X192619333Y-79017857D01*
X192619333Y-79160714D01*
X192571714Y-79255952D01*
X192524095Y-79303571D01*
X192428857Y-79351190D01*
X192047904Y-79351190D01*
X193476476Y-78827380D02*
X193286000Y-78827380D01*
X193190761Y-78875000D01*
X193143142Y-78922619D01*
X193047904Y-79065476D01*
X193000285Y-79255952D01*
X193000285Y-79636904D01*
X193047904Y-79732142D01*
X193095523Y-79779761D01*
X193190761Y-79827380D01*
X193381238Y-79827380D01*
X193476476Y-79779761D01*
X193524095Y-79732142D01*
X193571714Y-79636904D01*
X193571714Y-79398809D01*
X193524095Y-79303571D01*
X193476476Y-79255952D01*
X193381238Y-79208333D01*
X193190761Y-79208333D01*
X193095523Y-79255952D01*
X193047904Y-79303571D01*
X193000285Y-79398809D01*
X197953333Y-74747380D02*
X197620000Y-74271190D01*
X197381904Y-74747380D02*
X197381904Y-73747380D01*
X197762857Y-73747380D01*
X197858095Y-73795000D01*
X197905714Y-73842619D01*
X197953333Y-73937857D01*
X197953333Y-74080714D01*
X197905714Y-74175952D01*
X197858095Y-74223571D01*
X197762857Y-74271190D01*
X197381904Y-74271190D01*
X198858095Y-73747380D02*
X198381904Y-73747380D01*
X198334285Y-74223571D01*
X198381904Y-74175952D01*
X198477142Y-74128333D01*
X198715238Y-74128333D01*
X198810476Y-74175952D01*
X198858095Y-74223571D01*
X198905714Y-74318809D01*
X198905714Y-74556904D01*
X198858095Y-74652142D01*
X198810476Y-74699761D01*
X198715238Y-74747380D01*
X198477142Y-74747380D01*
X198381904Y-74699761D01*
X198334285Y-74652142D01*
X213701333Y-73858380D02*
X213368000Y-73382190D01*
X213129904Y-73858380D02*
X213129904Y-72858380D01*
X213510857Y-72858380D01*
X213606095Y-72906000D01*
X213653714Y-72953619D01*
X213701333Y-73048857D01*
X213701333Y-73191714D01*
X213653714Y-73286952D01*
X213606095Y-73334571D01*
X213510857Y-73382190D01*
X213129904Y-73382190D01*
X214558476Y-73191714D02*
X214558476Y-73858380D01*
X214320380Y-72810761D02*
X214082285Y-73525047D01*
X214701333Y-73525047D01*
X187285333Y-74747380D02*
X186952000Y-74271190D01*
X186713904Y-74747380D02*
X186713904Y-73747380D01*
X187094857Y-73747380D01*
X187190095Y-73795000D01*
X187237714Y-73842619D01*
X187285333Y-73937857D01*
X187285333Y-74080714D01*
X187237714Y-74175952D01*
X187190095Y-74223571D01*
X187094857Y-74271190D01*
X186713904Y-74271190D01*
X187618666Y-73747380D02*
X188237714Y-73747380D01*
X187904380Y-74128333D01*
X188047238Y-74128333D01*
X188142476Y-74175952D01*
X188190095Y-74223571D01*
X188237714Y-74318809D01*
X188237714Y-74556904D01*
X188190095Y-74652142D01*
X188142476Y-74699761D01*
X188047238Y-74747380D01*
X187761523Y-74747380D01*
X187666285Y-74699761D01*
X187618666Y-74652142D01*
X161234380Y-104306666D02*
X160758190Y-104640000D01*
X161234380Y-104878095D02*
X160234380Y-104878095D01*
X160234380Y-104497142D01*
X160282000Y-104401904D01*
X160329619Y-104354285D01*
X160424857Y-104306666D01*
X160567714Y-104306666D01*
X160662952Y-104354285D01*
X160710571Y-104401904D01*
X160758190Y-104497142D01*
X160758190Y-104878095D01*
X160329619Y-103925714D02*
X160282000Y-103878095D01*
X160234380Y-103782857D01*
X160234380Y-103544761D01*
X160282000Y-103449523D01*
X160329619Y-103401904D01*
X160424857Y-103354285D01*
X160520095Y-103354285D01*
X160662952Y-103401904D01*
X161234380Y-103973333D01*
X161234380Y-103354285D01*
X154758380Y-104306666D02*
X154282190Y-104640000D01*
X154758380Y-104878095D02*
X153758380Y-104878095D01*
X153758380Y-104497142D01*
X153806000Y-104401904D01*
X153853619Y-104354285D01*
X153948857Y-104306666D01*
X154091714Y-104306666D01*
X154186952Y-104354285D01*
X154234571Y-104401904D01*
X154282190Y-104497142D01*
X154282190Y-104878095D01*
X154758380Y-103354285D02*
X154758380Y-103925714D01*
X154758380Y-103640000D02*
X153758380Y-103640000D01*
X153901238Y-103735238D01*
X153996476Y-103830476D01*
X154044095Y-103925714D01*
X185832761Y-85510619D02*
X185737523Y-85463000D01*
X185642285Y-85367761D01*
X185499428Y-85224904D01*
X185404190Y-85177285D01*
X185308952Y-85177285D01*
X185356571Y-85415380D02*
X185261333Y-85367761D01*
X185166095Y-85272523D01*
X185118476Y-85082047D01*
X185118476Y-84748714D01*
X185166095Y-84558238D01*
X185261333Y-84463000D01*
X185356571Y-84415380D01*
X185547047Y-84415380D01*
X185642285Y-84463000D01*
X185737523Y-84558238D01*
X185785142Y-84748714D01*
X185785142Y-85082047D01*
X185737523Y-85272523D01*
X185642285Y-85367761D01*
X185547047Y-85415380D01*
X185356571Y-85415380D01*
X186118476Y-84415380D02*
X186737523Y-84415380D01*
X186404190Y-84796333D01*
X186547047Y-84796333D01*
X186642285Y-84843952D01*
X186689904Y-84891571D01*
X186737523Y-84986809D01*
X186737523Y-85224904D01*
X186689904Y-85320142D01*
X186642285Y-85367761D01*
X186547047Y-85415380D01*
X186261333Y-85415380D01*
X186166095Y-85367761D01*
X186118476Y-85320142D01*
X199548761Y-85510619D02*
X199453523Y-85463000D01*
X199358285Y-85367761D01*
X199215428Y-85224904D01*
X199120190Y-85177285D01*
X199024952Y-85177285D01*
X199072571Y-85415380D02*
X198977333Y-85367761D01*
X198882095Y-85272523D01*
X198834476Y-85082047D01*
X198834476Y-84748714D01*
X198882095Y-84558238D01*
X198977333Y-84463000D01*
X199072571Y-84415380D01*
X199263047Y-84415380D01*
X199358285Y-84463000D01*
X199453523Y-84558238D01*
X199501142Y-84748714D01*
X199501142Y-85082047D01*
X199453523Y-85272523D01*
X199358285Y-85367761D01*
X199263047Y-85415380D01*
X199072571Y-85415380D01*
X199882095Y-84510619D02*
X199929714Y-84463000D01*
X200024952Y-84415380D01*
X200263047Y-84415380D01*
X200358285Y-84463000D01*
X200405904Y-84510619D01*
X200453523Y-84605857D01*
X200453523Y-84701095D01*
X200405904Y-84843952D01*
X199834476Y-85415380D01*
X200453523Y-85415380D01*
X193706761Y-72429619D02*
X193611523Y-72382000D01*
X193516285Y-72286761D01*
X193373428Y-72143904D01*
X193278190Y-72096285D01*
X193182952Y-72096285D01*
X193230571Y-72334380D02*
X193135333Y-72286761D01*
X193040095Y-72191523D01*
X192992476Y-72001047D01*
X192992476Y-71667714D01*
X193040095Y-71477238D01*
X193135333Y-71382000D01*
X193230571Y-71334380D01*
X193421047Y-71334380D01*
X193516285Y-71382000D01*
X193611523Y-71477238D01*
X193659142Y-71667714D01*
X193659142Y-72001047D01*
X193611523Y-72191523D01*
X193516285Y-72286761D01*
X193421047Y-72334380D01*
X193230571Y-72334380D01*
X194611523Y-72334380D02*
X194040095Y-72334380D01*
X194325809Y-72334380D02*
X194325809Y-71334380D01*
X194230571Y-71477238D01*
X194135333Y-71572476D01*
X194040095Y-71620095D01*
X203144380Y-70524666D02*
X203144380Y-71000857D01*
X202144380Y-71000857D01*
X203144380Y-69667523D02*
X203144380Y-70238952D01*
X203144380Y-69953238D02*
X202144380Y-69953238D01*
X202287238Y-70048476D01*
X202382476Y-70143714D01*
X202430095Y-70238952D01*
X201858571Y-64341333D02*
X201858571Y-64674666D01*
X202382380Y-64674666D02*
X201382380Y-64674666D01*
X201382380Y-64198476D01*
X201477619Y-63865142D02*
X201430000Y-63817523D01*
X201382380Y-63722285D01*
X201382380Y-63484190D01*
X201430000Y-63388952D01*
X201477619Y-63341333D01*
X201572857Y-63293714D01*
X201668095Y-63293714D01*
X201810952Y-63341333D01*
X202382380Y-63912761D01*
X202382380Y-63293714D01*
X204216095Y-61428380D02*
X204835142Y-61428380D01*
X204501809Y-61809333D01*
X204644666Y-61809333D01*
X204739904Y-61856952D01*
X204787523Y-61904571D01*
X204835142Y-61999809D01*
X204835142Y-62237904D01*
X204787523Y-62333142D01*
X204739904Y-62380761D01*
X204644666Y-62428380D01*
X204358952Y-62428380D01*
X204263714Y-62380761D01*
X204216095Y-62333142D01*
X205216095Y-62142666D02*
X205692285Y-62142666D01*
X205120857Y-62428380D02*
X205454190Y-61428380D01*
X205787523Y-62428380D01*
X157146666Y-69016571D02*
X156813333Y-69016571D01*
X156813333Y-69540380D02*
X156813333Y-68540380D01*
X157289523Y-68540380D01*
X158194285Y-69540380D02*
X157622857Y-69540380D01*
X157908571Y-69540380D02*
X157908571Y-68540380D01*
X157813333Y-68683238D01*
X157718095Y-68778476D01*
X157622857Y-68826095D01*
X156718095Y-72604380D02*
X157337142Y-72604380D01*
X157003809Y-72985333D01*
X157146666Y-72985333D01*
X157241904Y-73032952D01*
X157289523Y-73080571D01*
X157337142Y-73175809D01*
X157337142Y-73413904D01*
X157289523Y-73509142D01*
X157241904Y-73556761D01*
X157146666Y-73604380D01*
X156860952Y-73604380D01*
X156765714Y-73556761D01*
X156718095Y-73509142D01*
X157718095Y-73318666D02*
X158194285Y-73318666D01*
X157622857Y-73604380D02*
X157956190Y-72604380D01*
X158289523Y-73604380D01*
X199462380Y-100560095D02*
X198462380Y-100560095D01*
X198462380Y-100322000D01*
X198510000Y-100179142D01*
X198605238Y-100083904D01*
X198700476Y-100036285D01*
X198890952Y-99988666D01*
X199033809Y-99988666D01*
X199224285Y-100036285D01*
X199319523Y-100083904D01*
X199414761Y-100179142D01*
X199462380Y-100322000D01*
X199462380Y-100560095D01*
X198462380Y-99655333D02*
X198462380Y-98988666D01*
X199462380Y-99417238D01*
X205176380Y-100560095D02*
X204176380Y-100560095D01*
X204176380Y-100322000D01*
X204224000Y-100179142D01*
X204319238Y-100083904D01*
X204414476Y-100036285D01*
X204604952Y-99988666D01*
X204747809Y-99988666D01*
X204938285Y-100036285D01*
X205033523Y-100083904D01*
X205128761Y-100179142D01*
X205176380Y-100322000D01*
X205176380Y-100560095D01*
X204176380Y-99131523D02*
X204176380Y-99322000D01*
X204224000Y-99417238D01*
X204271619Y-99464857D01*
X204414476Y-99560095D01*
X204604952Y-99607714D01*
X204985904Y-99607714D01*
X205081142Y-99560095D01*
X205128761Y-99512476D01*
X205176380Y-99417238D01*
X205176380Y-99226761D01*
X205128761Y-99131523D01*
X205081142Y-99083904D01*
X204985904Y-99036285D01*
X204747809Y-99036285D01*
X204652571Y-99083904D01*
X204604952Y-99131523D01*
X204557333Y-99226761D01*
X204557333Y-99417238D01*
X204604952Y-99512476D01*
X204652571Y-99560095D01*
X204747809Y-99607714D01*
X222019904Y-84780380D02*
X222019904Y-83780380D01*
X222258000Y-83780380D01*
X222400857Y-83828000D01*
X222496095Y-83923238D01*
X222543714Y-84018476D01*
X222591333Y-84208952D01*
X222591333Y-84351809D01*
X222543714Y-84542285D01*
X222496095Y-84637523D01*
X222400857Y-84732761D01*
X222258000Y-84780380D01*
X222019904Y-84780380D01*
X223496095Y-83780380D02*
X223019904Y-83780380D01*
X222972285Y-84256571D01*
X223019904Y-84208952D01*
X223115142Y-84161333D01*
X223353238Y-84161333D01*
X223448476Y-84208952D01*
X223496095Y-84256571D01*
X223543714Y-84351809D01*
X223543714Y-84589904D01*
X223496095Y-84685142D01*
X223448476Y-84732761D01*
X223353238Y-84780380D01*
X223115142Y-84780380D01*
X223019904Y-84732761D01*
X222972285Y-84685142D01*
X196873904Y-124150380D02*
X196873904Y-123150380D01*
X197112000Y-123150380D01*
X197254857Y-123198000D01*
X197350095Y-123293238D01*
X197397714Y-123388476D01*
X197445333Y-123578952D01*
X197445333Y-123721809D01*
X197397714Y-123912285D01*
X197350095Y-124007523D01*
X197254857Y-124102761D01*
X197112000Y-124150380D01*
X196873904Y-124150380D01*
X198302476Y-123483714D02*
X198302476Y-124150380D01*
X198064380Y-123102761D02*
X197826285Y-123817047D01*
X198445333Y-123817047D01*
X159456380Y-98020095D02*
X158456380Y-98020095D01*
X158456380Y-97782000D01*
X158504000Y-97639142D01*
X158599238Y-97543904D01*
X158694476Y-97496285D01*
X158884952Y-97448666D01*
X159027809Y-97448666D01*
X159218285Y-97496285D01*
X159313523Y-97543904D01*
X159408761Y-97639142D01*
X159456380Y-97782000D01*
X159456380Y-98020095D01*
X158456380Y-97115333D02*
X158456380Y-96496285D01*
X158837333Y-96829619D01*
X158837333Y-96686761D01*
X158884952Y-96591523D01*
X158932571Y-96543904D01*
X159027809Y-96496285D01*
X159265904Y-96496285D01*
X159361142Y-96543904D01*
X159408761Y-96591523D01*
X159456380Y-96686761D01*
X159456380Y-96972476D01*
X159408761Y-97067714D01*
X159361142Y-97115333D01*
X201620380Y-68048095D02*
X200620380Y-68048095D01*
X200620380Y-67810000D01*
X200668000Y-67667142D01*
X200763238Y-67571904D01*
X200858476Y-67524285D01*
X201048952Y-67476666D01*
X201191809Y-67476666D01*
X201382285Y-67524285D01*
X201477523Y-67571904D01*
X201572761Y-67667142D01*
X201620380Y-67810000D01*
X201620380Y-68048095D01*
X200715619Y-67095714D02*
X200668000Y-67048095D01*
X200620380Y-66952857D01*
X200620380Y-66714761D01*
X200668000Y-66619523D01*
X200715619Y-66571904D01*
X200810857Y-66524285D01*
X200906095Y-66524285D01*
X201048952Y-66571904D01*
X201620380Y-67143333D01*
X201620380Y-66524285D01*
X156408380Y-98020095D02*
X155408380Y-98020095D01*
X155408380Y-97782000D01*
X155456000Y-97639142D01*
X155551238Y-97543904D01*
X155646476Y-97496285D01*
X155836952Y-97448666D01*
X155979809Y-97448666D01*
X156170285Y-97496285D01*
X156265523Y-97543904D01*
X156360761Y-97639142D01*
X156408380Y-97782000D01*
X156408380Y-98020095D01*
X156408380Y-96496285D02*
X156408380Y-97067714D01*
X156408380Y-96782000D02*
X155408380Y-96782000D01*
X155551238Y-96877238D01*
X155646476Y-96972476D01*
X155694095Y-97067714D01*
X196969142Y-108561142D02*
X196921523Y-108608761D01*
X196778666Y-108656380D01*
X196683428Y-108656380D01*
X196540571Y-108608761D01*
X196445333Y-108513523D01*
X196397714Y-108418285D01*
X196350095Y-108227809D01*
X196350095Y-108084952D01*
X196397714Y-107894476D01*
X196445333Y-107799238D01*
X196540571Y-107704000D01*
X196683428Y-107656380D01*
X196778666Y-107656380D01*
X196921523Y-107704000D01*
X196969142Y-107751619D01*
X197350095Y-107751619D02*
X197397714Y-107704000D01*
X197492952Y-107656380D01*
X197731047Y-107656380D01*
X197826285Y-107704000D01*
X197873904Y-107751619D01*
X197921523Y-107846857D01*
X197921523Y-107942095D01*
X197873904Y-108084952D01*
X197302476Y-108656380D01*
X197921523Y-108656380D01*
X198873904Y-108656380D02*
X198302476Y-108656380D01*
X198588190Y-108656380D02*
X198588190Y-107656380D01*
X198492952Y-107799238D01*
X198397714Y-107894476D01*
X198302476Y-107942095D01*
X196969142Y-106275142D02*
X196921523Y-106322761D01*
X196778666Y-106370380D01*
X196683428Y-106370380D01*
X196540571Y-106322761D01*
X196445333Y-106227523D01*
X196397714Y-106132285D01*
X196350095Y-105941809D01*
X196350095Y-105798952D01*
X196397714Y-105608476D01*
X196445333Y-105513238D01*
X196540571Y-105418000D01*
X196683428Y-105370380D01*
X196778666Y-105370380D01*
X196921523Y-105418000D01*
X196969142Y-105465619D01*
X197350095Y-105465619D02*
X197397714Y-105418000D01*
X197492952Y-105370380D01*
X197731047Y-105370380D01*
X197826285Y-105418000D01*
X197873904Y-105465619D01*
X197921523Y-105560857D01*
X197921523Y-105656095D01*
X197873904Y-105798952D01*
X197302476Y-106370380D01*
X197921523Y-106370380D01*
X198540571Y-105370380D02*
X198635809Y-105370380D01*
X198731047Y-105418000D01*
X198778666Y-105465619D01*
X198826285Y-105560857D01*
X198873904Y-105751333D01*
X198873904Y-105989428D01*
X198826285Y-106179904D01*
X198778666Y-106275142D01*
X198731047Y-106322761D01*
X198635809Y-106370380D01*
X198540571Y-106370380D01*
X198445333Y-106322761D01*
X198397714Y-106275142D01*
X198350095Y-106179904D01*
X198302476Y-105989428D01*
X198302476Y-105751333D01*
X198350095Y-105560857D01*
X198397714Y-105465619D01*
X198445333Y-105418000D01*
X198540571Y-105370380D01*
X198747142Y-94845142D02*
X198699523Y-94892761D01*
X198556666Y-94940380D01*
X198461428Y-94940380D01*
X198318571Y-94892761D01*
X198223333Y-94797523D01*
X198175714Y-94702285D01*
X198128095Y-94511809D01*
X198128095Y-94368952D01*
X198175714Y-94178476D01*
X198223333Y-94083238D01*
X198318571Y-93988000D01*
X198461428Y-93940380D01*
X198556666Y-93940380D01*
X198699523Y-93988000D01*
X198747142Y-94035619D01*
X199699523Y-94940380D02*
X199128095Y-94940380D01*
X199413809Y-94940380D02*
X199413809Y-93940380D01*
X199318571Y-94083238D01*
X199223333Y-94178476D01*
X199128095Y-94226095D01*
X200175714Y-94940380D02*
X200366190Y-94940380D01*
X200461428Y-94892761D01*
X200509047Y-94845142D01*
X200604285Y-94702285D01*
X200651904Y-94511809D01*
X200651904Y-94130857D01*
X200604285Y-94035619D01*
X200556666Y-93988000D01*
X200461428Y-93940380D01*
X200270952Y-93940380D01*
X200175714Y-93988000D01*
X200128095Y-94035619D01*
X200080476Y-94130857D01*
X200080476Y-94368952D01*
X200128095Y-94464190D01*
X200175714Y-94511809D01*
X200270952Y-94559428D01*
X200461428Y-94559428D01*
X200556666Y-94511809D01*
X200604285Y-94464190D01*
X200651904Y-94368952D01*
X188079142Y-94845142D02*
X188031523Y-94892761D01*
X187888666Y-94940380D01*
X187793428Y-94940380D01*
X187650571Y-94892761D01*
X187555333Y-94797523D01*
X187507714Y-94702285D01*
X187460095Y-94511809D01*
X187460095Y-94368952D01*
X187507714Y-94178476D01*
X187555333Y-94083238D01*
X187650571Y-93988000D01*
X187793428Y-93940380D01*
X187888666Y-93940380D01*
X188031523Y-93988000D01*
X188079142Y-94035619D01*
X189031523Y-94940380D02*
X188460095Y-94940380D01*
X188745809Y-94940380D02*
X188745809Y-93940380D01*
X188650571Y-94083238D01*
X188555333Y-94178476D01*
X188460095Y-94226095D01*
X189602952Y-94368952D02*
X189507714Y-94321333D01*
X189460095Y-94273714D01*
X189412476Y-94178476D01*
X189412476Y-94130857D01*
X189460095Y-94035619D01*
X189507714Y-93988000D01*
X189602952Y-93940380D01*
X189793428Y-93940380D01*
X189888666Y-93988000D01*
X189936285Y-94035619D01*
X189983904Y-94130857D01*
X189983904Y-94178476D01*
X189936285Y-94273714D01*
X189888666Y-94321333D01*
X189793428Y-94368952D01*
X189602952Y-94368952D01*
X189507714Y-94416571D01*
X189460095Y-94464190D01*
X189412476Y-94559428D01*
X189412476Y-94749904D01*
X189460095Y-94845142D01*
X189507714Y-94892761D01*
X189602952Y-94940380D01*
X189793428Y-94940380D01*
X189888666Y-94892761D01*
X189936285Y-94845142D01*
X189983904Y-94749904D01*
X189983904Y-94559428D01*
X189936285Y-94464190D01*
X189888666Y-94416571D01*
X189793428Y-94368952D01*
X186301142Y-108561142D02*
X186253523Y-108608761D01*
X186110666Y-108656380D01*
X186015428Y-108656380D01*
X185872571Y-108608761D01*
X185777333Y-108513523D01*
X185729714Y-108418285D01*
X185682095Y-108227809D01*
X185682095Y-108084952D01*
X185729714Y-107894476D01*
X185777333Y-107799238D01*
X185872571Y-107704000D01*
X186015428Y-107656380D01*
X186110666Y-107656380D01*
X186253523Y-107704000D01*
X186301142Y-107751619D01*
X187253523Y-108656380D02*
X186682095Y-108656380D01*
X186967809Y-108656380D02*
X186967809Y-107656380D01*
X186872571Y-107799238D01*
X186777333Y-107894476D01*
X186682095Y-107942095D01*
X187586857Y-107656380D02*
X188253523Y-107656380D01*
X187824952Y-108656380D01*
X220067142Y-99448857D02*
X220114761Y-99496476D01*
X220162380Y-99639333D01*
X220162380Y-99734571D01*
X220114761Y-99877428D01*
X220019523Y-99972666D01*
X219924285Y-100020285D01*
X219733809Y-100067904D01*
X219590952Y-100067904D01*
X219400476Y-100020285D01*
X219305238Y-99972666D01*
X219210000Y-99877428D01*
X219162380Y-99734571D01*
X219162380Y-99639333D01*
X219210000Y-99496476D01*
X219257619Y-99448857D01*
X220162380Y-98496476D02*
X220162380Y-99067904D01*
X220162380Y-98782190D02*
X219162380Y-98782190D01*
X219305238Y-98877428D01*
X219400476Y-98972666D01*
X219448095Y-99067904D01*
X219162380Y-97639333D02*
X219162380Y-97829809D01*
X219210000Y-97925047D01*
X219257619Y-97972666D01*
X219400476Y-98067904D01*
X219590952Y-98115523D01*
X219971904Y-98115523D01*
X220067142Y-98067904D01*
X220114761Y-98020285D01*
X220162380Y-97925047D01*
X220162380Y-97734571D01*
X220114761Y-97639333D01*
X220067142Y-97591714D01*
X219971904Y-97544095D01*
X219733809Y-97544095D01*
X219638571Y-97591714D01*
X219590952Y-97639333D01*
X219543333Y-97734571D01*
X219543333Y-97925047D01*
X219590952Y-98020285D01*
X219638571Y-98067904D01*
X219733809Y-98115523D01*
X186301142Y-106275142D02*
X186253523Y-106322761D01*
X186110666Y-106370380D01*
X186015428Y-106370380D01*
X185872571Y-106322761D01*
X185777333Y-106227523D01*
X185729714Y-106132285D01*
X185682095Y-105941809D01*
X185682095Y-105798952D01*
X185729714Y-105608476D01*
X185777333Y-105513238D01*
X185872571Y-105418000D01*
X186015428Y-105370380D01*
X186110666Y-105370380D01*
X186253523Y-105418000D01*
X186301142Y-105465619D01*
X187253523Y-106370380D02*
X186682095Y-106370380D01*
X186967809Y-106370380D02*
X186967809Y-105370380D01*
X186872571Y-105513238D01*
X186777333Y-105608476D01*
X186682095Y-105656095D01*
X188158285Y-105370380D02*
X187682095Y-105370380D01*
X187634476Y-105846571D01*
X187682095Y-105798952D01*
X187777333Y-105751333D01*
X188015428Y-105751333D01*
X188110666Y-105798952D01*
X188158285Y-105846571D01*
X188205904Y-105941809D01*
X188205904Y-106179904D01*
X188158285Y-106275142D01*
X188110666Y-106322761D01*
X188015428Y-106370380D01*
X187777333Y-106370380D01*
X187682095Y-106322761D01*
X187634476Y-106275142D01*
X220067142Y-90050857D02*
X220114761Y-90098476D01*
X220162380Y-90241333D01*
X220162380Y-90336571D01*
X220114761Y-90479428D01*
X220019523Y-90574666D01*
X219924285Y-90622285D01*
X219733809Y-90669904D01*
X219590952Y-90669904D01*
X219400476Y-90622285D01*
X219305238Y-90574666D01*
X219210000Y-90479428D01*
X219162380Y-90336571D01*
X219162380Y-90241333D01*
X219210000Y-90098476D01*
X219257619Y-90050857D01*
X220162380Y-89098476D02*
X220162380Y-89669904D01*
X220162380Y-89384190D02*
X219162380Y-89384190D01*
X219305238Y-89479428D01*
X219400476Y-89574666D01*
X219448095Y-89669904D01*
X219495714Y-88241333D02*
X220162380Y-88241333D01*
X219114761Y-88479428D02*
X219829047Y-88717523D01*
X219829047Y-88098476D01*
X214225142Y-83700857D02*
X214272761Y-83748476D01*
X214320380Y-83891333D01*
X214320380Y-83986571D01*
X214272761Y-84129428D01*
X214177523Y-84224666D01*
X214082285Y-84272285D01*
X213891809Y-84319904D01*
X213748952Y-84319904D01*
X213558476Y-84272285D01*
X213463238Y-84224666D01*
X213368000Y-84129428D01*
X213320380Y-83986571D01*
X213320380Y-83891333D01*
X213368000Y-83748476D01*
X213415619Y-83700857D01*
X214320380Y-82748476D02*
X214320380Y-83319904D01*
X214320380Y-83034190D02*
X213320380Y-83034190D01*
X213463238Y-83129428D01*
X213558476Y-83224666D01*
X213606095Y-83319904D01*
X213320380Y-82415142D02*
X213320380Y-81796095D01*
X213701333Y-82129428D01*
X213701333Y-81986571D01*
X213748952Y-81891333D01*
X213796571Y-81843714D01*
X213891809Y-81796095D01*
X214129904Y-81796095D01*
X214225142Y-81843714D01*
X214272761Y-81891333D01*
X214320380Y-81986571D01*
X214320380Y-82272285D01*
X214272761Y-82367523D01*
X214225142Y-82415142D01*
X228465142Y-132945142D02*
X228417523Y-132992761D01*
X228274666Y-133040380D01*
X228179428Y-133040380D01*
X228036571Y-132992761D01*
X227941333Y-132897523D01*
X227893714Y-132802285D01*
X227846095Y-132611809D01*
X227846095Y-132468952D01*
X227893714Y-132278476D01*
X227941333Y-132183238D01*
X228036571Y-132088000D01*
X228179428Y-132040380D01*
X228274666Y-132040380D01*
X228417523Y-132088000D01*
X228465142Y-132135619D01*
X229417523Y-133040380D02*
X228846095Y-133040380D01*
X229131809Y-133040380D02*
X229131809Y-132040380D01*
X229036571Y-132183238D01*
X228941333Y-132278476D01*
X228846095Y-132326095D01*
X229798476Y-132135619D02*
X229846095Y-132088000D01*
X229941333Y-132040380D01*
X230179428Y-132040380D01*
X230274666Y-132088000D01*
X230322285Y-132135619D01*
X230369904Y-132230857D01*
X230369904Y-132326095D01*
X230322285Y-132468952D01*
X229750857Y-133040380D01*
X230369904Y-133040380D01*
X190365142Y-135231142D02*
X190317523Y-135278761D01*
X190174666Y-135326380D01*
X190079428Y-135326380D01*
X189936571Y-135278761D01*
X189841333Y-135183523D01*
X189793714Y-135088285D01*
X189746095Y-134897809D01*
X189746095Y-134754952D01*
X189793714Y-134564476D01*
X189841333Y-134469238D01*
X189936571Y-134374000D01*
X190079428Y-134326380D01*
X190174666Y-134326380D01*
X190317523Y-134374000D01*
X190365142Y-134421619D01*
X191317523Y-135326380D02*
X190746095Y-135326380D01*
X191031809Y-135326380D02*
X191031809Y-134326380D01*
X190936571Y-134469238D01*
X190841333Y-134564476D01*
X190746095Y-134612095D01*
X192269904Y-135326380D02*
X191698476Y-135326380D01*
X191984190Y-135326380D02*
X191984190Y-134326380D01*
X191888952Y-134469238D01*
X191793714Y-134564476D01*
X191698476Y-134612095D01*
X220067142Y-127642857D02*
X220114761Y-127690476D01*
X220162380Y-127833333D01*
X220162380Y-127928571D01*
X220114761Y-128071428D01*
X220019523Y-128166666D01*
X219924285Y-128214285D01*
X219733809Y-128261904D01*
X219590952Y-128261904D01*
X219400476Y-128214285D01*
X219305238Y-128166666D01*
X219210000Y-128071428D01*
X219162380Y-127928571D01*
X219162380Y-127833333D01*
X219210000Y-127690476D01*
X219257619Y-127642857D01*
X220162380Y-126690476D02*
X220162380Y-127261904D01*
X220162380Y-126976190D02*
X219162380Y-126976190D01*
X219305238Y-127071428D01*
X219400476Y-127166666D01*
X219448095Y-127261904D01*
X219162380Y-126071428D02*
X219162380Y-125976190D01*
X219210000Y-125880952D01*
X219257619Y-125833333D01*
X219352857Y-125785714D01*
X219543333Y-125738095D01*
X219781428Y-125738095D01*
X219971904Y-125785714D01*
X220067142Y-125833333D01*
X220114761Y-125880952D01*
X220162380Y-125976190D01*
X220162380Y-126071428D01*
X220114761Y-126166666D01*
X220067142Y-126214285D01*
X219971904Y-126261904D01*
X219781428Y-126309523D01*
X219543333Y-126309523D01*
X219352857Y-126261904D01*
X219257619Y-126214285D01*
X219210000Y-126166666D01*
X219162380Y-126071428D01*
X187285333Y-81764142D02*
X187237714Y-81811761D01*
X187094857Y-81859380D01*
X186999619Y-81859380D01*
X186856761Y-81811761D01*
X186761523Y-81716523D01*
X186713904Y-81621285D01*
X186666285Y-81430809D01*
X186666285Y-81287952D01*
X186713904Y-81097476D01*
X186761523Y-81002238D01*
X186856761Y-80907000D01*
X186999619Y-80859380D01*
X187094857Y-80859380D01*
X187237714Y-80907000D01*
X187285333Y-80954619D01*
X187761523Y-81859380D02*
X187952000Y-81859380D01*
X188047238Y-81811761D01*
X188094857Y-81764142D01*
X188190095Y-81621285D01*
X188237714Y-81430809D01*
X188237714Y-81049857D01*
X188190095Y-80954619D01*
X188142476Y-80907000D01*
X188047238Y-80859380D01*
X187856761Y-80859380D01*
X187761523Y-80907000D01*
X187713904Y-80954619D01*
X187666285Y-81049857D01*
X187666285Y-81287952D01*
X187713904Y-81383190D01*
X187761523Y-81430809D01*
X187856761Y-81478428D01*
X188047238Y-81478428D01*
X188142476Y-81430809D01*
X188190095Y-81383190D01*
X188237714Y-81287952D01*
X193381333Y-125833142D02*
X193333714Y-125880761D01*
X193190857Y-125928380D01*
X193095619Y-125928380D01*
X192952761Y-125880761D01*
X192857523Y-125785523D01*
X192809904Y-125690285D01*
X192762285Y-125499809D01*
X192762285Y-125356952D01*
X192809904Y-125166476D01*
X192857523Y-125071238D01*
X192952761Y-124976000D01*
X193095619Y-124928380D01*
X193190857Y-124928380D01*
X193333714Y-124976000D01*
X193381333Y-125023619D01*
X193952761Y-125356952D02*
X193857523Y-125309333D01*
X193809904Y-125261714D01*
X193762285Y-125166476D01*
X193762285Y-125118857D01*
X193809904Y-125023619D01*
X193857523Y-124976000D01*
X193952761Y-124928380D01*
X194143238Y-124928380D01*
X194238476Y-124976000D01*
X194286095Y-125023619D01*
X194333714Y-125118857D01*
X194333714Y-125166476D01*
X194286095Y-125261714D01*
X194238476Y-125309333D01*
X194143238Y-125356952D01*
X193952761Y-125356952D01*
X193857523Y-125404571D01*
X193809904Y-125452190D01*
X193762285Y-125547428D01*
X193762285Y-125737904D01*
X193809904Y-125833142D01*
X193857523Y-125880761D01*
X193952761Y-125928380D01*
X194143238Y-125928380D01*
X194238476Y-125880761D01*
X194286095Y-125833142D01*
X194333714Y-125737904D01*
X194333714Y-125547428D01*
X194286095Y-125452190D01*
X194238476Y-125404571D01*
X194143238Y-125356952D01*
X220813333Y-69699142D02*
X220765714Y-69746761D01*
X220622857Y-69794380D01*
X220527619Y-69794380D01*
X220384761Y-69746761D01*
X220289523Y-69651523D01*
X220241904Y-69556285D01*
X220194285Y-69365809D01*
X220194285Y-69222952D01*
X220241904Y-69032476D01*
X220289523Y-68937238D01*
X220384761Y-68842000D01*
X220527619Y-68794380D01*
X220622857Y-68794380D01*
X220765714Y-68842000D01*
X220813333Y-68889619D01*
X221146666Y-68794380D02*
X221813333Y-68794380D01*
X221384761Y-69794380D01*
X220067142Y-117768666D02*
X220114761Y-117816285D01*
X220162380Y-117959142D01*
X220162380Y-118054380D01*
X220114761Y-118197238D01*
X220019523Y-118292476D01*
X219924285Y-118340095D01*
X219733809Y-118387714D01*
X219590952Y-118387714D01*
X219400476Y-118340095D01*
X219305238Y-118292476D01*
X219210000Y-118197238D01*
X219162380Y-118054380D01*
X219162380Y-117959142D01*
X219210000Y-117816285D01*
X219257619Y-117768666D01*
X219162380Y-116911523D02*
X219162380Y-117102000D01*
X219210000Y-117197238D01*
X219257619Y-117244857D01*
X219400476Y-117340095D01*
X219590952Y-117387714D01*
X219971904Y-117387714D01*
X220067142Y-117340095D01*
X220114761Y-117292476D01*
X220162380Y-117197238D01*
X220162380Y-117006761D01*
X220114761Y-116911523D01*
X220067142Y-116863904D01*
X219971904Y-116816285D01*
X219733809Y-116816285D01*
X219638571Y-116863904D01*
X219590952Y-116911523D01*
X219543333Y-117006761D01*
X219543333Y-117197238D01*
X219590952Y-117292476D01*
X219638571Y-117340095D01*
X219733809Y-117387714D01*
X216241333Y-73763142D02*
X216193714Y-73810761D01*
X216050857Y-73858380D01*
X215955619Y-73858380D01*
X215812761Y-73810761D01*
X215717523Y-73715523D01*
X215669904Y-73620285D01*
X215622285Y-73429809D01*
X215622285Y-73286952D01*
X215669904Y-73096476D01*
X215717523Y-73001238D01*
X215812761Y-72906000D01*
X215955619Y-72858380D01*
X216050857Y-72858380D01*
X216193714Y-72906000D01*
X216241333Y-72953619D01*
X217146095Y-72858380D02*
X216669904Y-72858380D01*
X216622285Y-73334571D01*
X216669904Y-73286952D01*
X216765142Y-73239333D01*
X217003238Y-73239333D01*
X217098476Y-73286952D01*
X217146095Y-73334571D01*
X217193714Y-73429809D01*
X217193714Y-73667904D01*
X217146095Y-73763142D01*
X217098476Y-73810761D01*
X217003238Y-73858380D01*
X216765142Y-73858380D01*
X216669904Y-73810761D01*
X216622285Y-73763142D01*
X218781333Y-73763142D02*
X218733714Y-73810761D01*
X218590857Y-73858380D01*
X218495619Y-73858380D01*
X218352761Y-73810761D01*
X218257523Y-73715523D01*
X218209904Y-73620285D01*
X218162285Y-73429809D01*
X218162285Y-73286952D01*
X218209904Y-73096476D01*
X218257523Y-73001238D01*
X218352761Y-72906000D01*
X218495619Y-72858380D01*
X218590857Y-72858380D01*
X218733714Y-72906000D01*
X218781333Y-72953619D01*
X219638476Y-73191714D02*
X219638476Y-73858380D01*
X219400380Y-72810761D02*
X219162285Y-73525047D01*
X219781333Y-73525047D01*
X220067142Y-108370666D02*
X220114761Y-108418285D01*
X220162380Y-108561142D01*
X220162380Y-108656380D01*
X220114761Y-108799238D01*
X220019523Y-108894476D01*
X219924285Y-108942095D01*
X219733809Y-108989714D01*
X219590952Y-108989714D01*
X219400476Y-108942095D01*
X219305238Y-108894476D01*
X219210000Y-108799238D01*
X219162380Y-108656380D01*
X219162380Y-108561142D01*
X219210000Y-108418285D01*
X219257619Y-108370666D01*
X219162380Y-108037333D02*
X219162380Y-107418285D01*
X219543333Y-107751619D01*
X219543333Y-107608761D01*
X219590952Y-107513523D01*
X219638571Y-107465904D01*
X219733809Y-107418285D01*
X219971904Y-107418285D01*
X220067142Y-107465904D01*
X220114761Y-107513523D01*
X220162380Y-107608761D01*
X220162380Y-107894476D01*
X220114761Y-107989714D01*
X220067142Y-108037333D01*
X187285333Y-110847142D02*
X187237714Y-110894761D01*
X187094857Y-110942380D01*
X186999619Y-110942380D01*
X186856761Y-110894761D01*
X186761523Y-110799523D01*
X186713904Y-110704285D01*
X186666285Y-110513809D01*
X186666285Y-110370952D01*
X186713904Y-110180476D01*
X186761523Y-110085238D01*
X186856761Y-109990000D01*
X186999619Y-109942380D01*
X187094857Y-109942380D01*
X187237714Y-109990000D01*
X187285333Y-110037619D01*
X187666285Y-110037619D02*
X187713904Y-109990000D01*
X187809142Y-109942380D01*
X188047238Y-109942380D01*
X188142476Y-109990000D01*
X188190095Y-110037619D01*
X188237714Y-110132857D01*
X188237714Y-110228095D01*
X188190095Y-110370952D01*
X187618666Y-110942380D01*
X188237714Y-110942380D01*
X196937333Y-110847142D02*
X196889714Y-110894761D01*
X196746857Y-110942380D01*
X196651619Y-110942380D01*
X196508761Y-110894761D01*
X196413523Y-110799523D01*
X196365904Y-110704285D01*
X196318285Y-110513809D01*
X196318285Y-110370952D01*
X196365904Y-110180476D01*
X196413523Y-110085238D01*
X196508761Y-109990000D01*
X196651619Y-109942380D01*
X196746857Y-109942380D01*
X196889714Y-109990000D01*
X196937333Y-110037619D01*
X197889714Y-110942380D02*
X197318285Y-110942380D01*
X197604000Y-110942380D02*
X197604000Y-109942380D01*
X197508761Y-110085238D01*
X197413523Y-110180476D01*
X197318285Y-110228095D01*
M02*
